<svg xmlns="http://www.w3.org/2000/svg" viewBox="0 0 272.64 136.66"><defs><style>.cls-1{fill:#dcecfd;}.cls-2{fill:#bedbfa;}.cls-3{fill:#193262;}.cls-4{fill:#445d9b;}.cls-5{fill:#3d7ed6;}.cls-6{fill:#334d90;}.cls-7{fill:#324d90;}.cls-8{fill:#fff;}.cls-9{fill:#2a437d;}.cls-10{fill:#f9ce68;}.cls-11{fill:#5a455b;}.cls-12{fill:#4392f2;}.cls-13{fill:#f9ce69;}.cls-14{fill:#f3d1c6;}.cls-15{fill:#feffff;}.cls-16{fill:#4493f3;}.cls-17{fill:#183062;}.cls-18{fill:#314c8f;}.cls-19{fill:#344e90;}.cls-20{fill:#ee903e;}.cls-21{fill:#f1d0c5;}.cls-22{fill:#334e90;}.cls-23{fill:#fefefe;}.cls-24{fill:#eca19e;}.cls-25{fill:#f0903d;}.cls-26{fill:#e7f1fd;}</style></defs><g id="Layer_2" data-name="Layer 2"><g id="Layer_1-2" data-name="Layer 1"><g id="Svg_image_2" data-name="Svg image 2"><path class="cls-1" d="M73.94,46.34c1.19,0,2.39.09,3.58.11,2.37,0,4.74.12,7.12.11,1.14,0,2.29-.14,3.44-.23.91-.07,1.83-.13,2.74-.26a21.72,21.72,0,0,0,5.86-1.57,18.65,18.65,0,0,0,4.43-2.83,26.1,26.1,0,0,0,3-3c3.37-4,6-8.45,8.94-12.68,1.39-2,2.84-3.89,4.32-5.79.83-1.07,1.77-2.06,2.68-3.08.6-.67,1.2-1.35,1.86-2a55.4,55.4,0,0,1,5.4-4.49,49.85,49.85,0,0,1,8-4.62c1-.48,2.11-.91,3.19-1.31a50,50,0,0,1,6.85-2.07c1.65-.37,3.32-.68,5-1,1.36-.24,2.72-.43,4.09-.61.62-.09,1.25-.09,1.87-.15l2.5-.23a3.2,3.2,0,0,1,.44,0,30.35,30.35,0,0,0,3.69-.24c.81-.1,1.63-.11,2.45-.14,1.06-.05,2.14,0,3.2-.15a53.86,53.86,0,0,1,5.54-.1c1.4,0,2.81.05,4.21.13s2.62.23,3.93.36c1.51.16,3,.29,4.54.53,1.91.31,3.82.69,5.72,1.08a69.73,69.73,0,0,1,8.41,2.31A65,65,0,0,1,208,7.21c1,.49,2.08.91,3.08,1.43a78.61,78.61,0,0,1,9.71,5.81c1.68,1.19,3.3,2.44,4.89,3.74,1.27,1,2.47,2.14,3.67,3.26s2.33,2.17,3.44,3.32,2.25,2.43,3.32,3.69c1.38,1.63,2.77,3.25,4,5,1.61,2.14,3.17,4.33,4.56,6.62.84,1.38,1.7,2.74,2.54,4.12.41.67.79,1.34,1.16,2,.66,1.24,1.3,2.48,1.94,3.74s1.32,2.57,1.93,3.89q1.13,2.41,2.15,4.89c.93,2.27,1.87,4.54,2.7,6.84.9,2.51,1.69,5,2.49,7.59.59,1.89,1.14,3.81,1.66,5.73S262.37,83,262.84,85q.77,3.36,1.41,6.75c.38,1.95.71,3.9,1,5.86.21,1.32.35,2.65.53,4,.16,1.16.33,2.31.48,3.47.07.58.09,1.17.15,1.75s.16,1.24.22,1.86.11,1,.15,1.5c.05.75.08,1.51.13,2.26.07.95.16,1.91.24,2.87,0,0,0,.08,0,.12,0,1.11.11,2.22.13,3.33.05,2.92.1,5.84.12,8.76,0,1.34-.07,2.68-.13,4,0,.73-.08,1.46-.12,2.19,0,.19,0,.4-.23.45-.05-1.15-.11-2.3-.14-3.45-.05-1.89-.09-3.78-.13-5.67,0-1.55-.09-3.1-.13-4.65,0-.06,0-.12,0-.19-.08-1.1-.17-2.21-.24-3.31s-.08-1.93-.13-2.89q-.06-.84-.15-1.68c-.07-.67-.14-1.33-.23-2q-.15-1.31-.33-2.61c0-.29-.11-.58-.16-.88l-.16,0c-.46.56-.93,1.11-1.38,1.68s-.88,1.17-1.29,1.78-.81,1.22-1.18,1.86a22,22,0,0,0-1.83,3.92c-.25.69-.44,1.4-.63,2.11s-.31,1.36-.46,2c-.18-.83-.26-1.63-.41-2.43a22.35,22.35,0,0,0-4.34-9.79,38.65,38.65,0,0,0-3.11-3.29c-.09-.09-.29-.07-.44-.11a.05.05,0,0,1,0,0l-.12-.14h0l-.12-.15c-.1-.13-.19-.27-.28-.41A15,15,0,0,0,245,99.07c-.4-.26-.82-.51-1.23-.76.2-.67.41-1.34.61-2L248,97.38c.07-.29.15-.5.18-.72a3.62,3.62,0,0,0-.43-2.65,5.43,5.43,0,0,0-.6-1c-.42-.42-.92-.76-1.38-1.14a4.21,4.21,0,0,0,.09-.49.87.87,0,0,0-.71-1,.92.92,0,0,0-1,.5c-.06.13-.09.28-.14.41-.4,0-.8,0-1.19,0a4.06,4.06,0,0,0-3.56,2.74l-.23.45.63.23,3,1c-.18.6-.36,1.2-.55,1.8l-.66-.19a17.31,17.31,0,0,0-5.49-.86l-.74,0c0-.24-.11-.49-.16-.74l-4.23-19.38q-2.11-9.66-4.22-19.32c-.33-1.5-.67-3-1-4.48A5.42,5.42,0,0,0,227.5,49a5.17,5.17,0,0,0-3.62-5.77,5.8,5.8,0,0,0-3.94.18,5.83,5.83,0,0,1-.72.18c-.16-.1-.32-.2-.49-.29L170.51,17.34c-1.48-.8-3-1.57-4.45-2.36a6.51,6.51,0,0,1-.51-.54c-3.56-4.93-8.61-6.76-14.45-6.8a17.19,17.19,0,0,0-3.56.46A15.61,15.61,0,0,0,136.11,17a26.13,26.13,0,0,0-2.34,9.48c-.43.4-.43.41-.08.88l0,2.15c-.33.3-.21.59,0,.88a14.18,14.18,0,0,0,.31,3.87h6.2l1.12,0c.05.16.09.33.15.48a10.49,10.49,0,0,0,11.76,6.4,10.13,10.13,0,0,0,6.24-3.85,8.62,8.62,0,0,0,1.62-3l.69,0h6.85l.74,0c0-1.32.09-2.57.13-3.83.3-.46.3-.46,0-.88l0-2.15c.35-.46.35-.48-.08-.89-.2-1.42-.36-2.86-.61-4.27-.16-1-.46-1.91-.7-2.86l.22.11L212.1,43l5.06,2.69a1.8,1.8,0,0,1,0,.52,6.29,6.29,0,0,0-.33,2.35,5.07,5.07,0,0,0,3.57,4.69,7.59,7.59,0,0,0,2.42.26,1.21,1.21,0,0,1,.05.18c1,4.57,2,9.15,3,13.72Q229,82,232.17,96.54a27.26,27.26,0,0,0-4.62,1.11l-.69-1.32,3.31-1.77A4.09,4.09,0,0,0,228.94,93a2.61,2.61,0,0,0-1.51-.72,2.74,2.74,0,0,0-1.69-.21c-.36,0-.7.12-1.05.19a1.77,1.77,0,0,0-.16-.34.92.92,0,0,0-1.65.8,2.83,2.83,0,0,0,.17.4,11.7,11.7,0,0,0-1.17,1.38,3.78,3.78,0,0,0-.25,3.83l.19.61,1-.52,2.4-1.18.61,1.21c-.16.11-.3.23-.46.33a14.34,14.34,0,0,0-4.15,3.72A16.9,16.9,0,0,0,217.87,113a17.87,17.87,0,0,0,.36,3.25,15.94,15.94,0,0,0,2.78,6.48,15.35,15.35,0,0,0,4.26,4,14.11,14.11,0,0,1-1.72,0,5.06,5.06,0,0,0-1.29,0,3.73,3.73,0,0,0,.18.43c.59.89,1.17,1.78,1.78,2.65a8.18,8.18,0,0,0,.76.8c-.38.64-.8,1.27-1.12,1.94s-.58,1.46-.86,2.2h0l-.08.1-.52,1a3,3,0,0,1-.31,0l-9.89-.05a1.65,1.65,0,0,1-.31,0c0-.08,0-.18.09-.22a3.18,3.18,0,0,0,1.18-2.71c0-3.57,0-7.14,0-10.71v-9.84h-1.64c.4-1.56.8-3.12,1.19-4.69.32-1.29.63-2.6.95-3.89l.13-.51.14-.63.12-.38.12-.5.1-.49a1.1,1.1,0,0,0-.57-1.63A1.23,1.23,0,0,0,212,100.7l-.13.52-.12.51-.11.38-.14.63-.12.45c0,.14-.11.27-.15.41-.75,2.9-1.49,5.81-2.24,8.72h-2l0-.13c0-1.36,0-2.71,0-4.07,0-1.59,0-3.18,0-4.76V100.6c0-.08,0-.16,0-.25a1.35,1.35,0,0,0-1-1.23,1.25,1.25,0,0,0-1.21.71,3.26,3.26,0,0,0-.13.78l0,.49v2c0,.25,0,.5,0,.75v8.43c-.83,0-1.67,0-2.53,0V94.17l0-1a46.53,46.53,0,0,0-6.22.06v2.43h2.3v.87h-2.31v1.13h2.29v1c-.8.1-1.55,0-2.28.08v1.12h2.29v.87h-2.3v1.13h2.31v1h-2.29V104c.8.1,1.55,0,2.28.08v.86H195.8V106h2.3v.81c-.78.19-1.59-.14-2.3.26v1.08h2.3v.87h-2.29v1.13H197l1.15,0,0,.78c-.82.2-1.63-.16-2.36.31v1a7.07,7.07,0,0,0-1.64.09c0,.22,0,.43,0,.63,0,.89.09,1.78.13,2.67a1.51,1.51,0,0,0-.13.33q0,.81,0,1.62a1.06,1.06,0,0,0,.12.34c0,.62,0,1.25,0,1.88,0,.06-.12.13-.12.2,0,.62,0,1.25,0,1.87,0,.07.07.14.11.21,0,.46-.1.91-.12,1.37-.05,1-.09,2.1-.13,3.14,0,1.26-.11,2.52-.12,3.77A17.52,17.52,0,0,0,194,133a3.05,3.05,0,0,0,1.52,2.6,2.19,2.19,0,0,1,.23.21l-.57,0-17.48,0c-.54,0-1.09,0-1.63-.05l-.41-1.28,2.68-.41a31.82,31.82,0,0,0,5.1-1.13,9.06,9.06,0,0,0,5.5-4.8,10.48,10.48,0,0,0,.53-8.09,8.92,8.92,0,0,0-6-6,12,12,0,0,0-5.74-.27c-1.45.25-2.88.59-4.32.89a18.09,18.09,0,0,0,1.14-1.88,9.23,9.23,0,0,0,.77-3.91,21.25,21.25,0,0,0-.12-2.26c-.12-1.23-.28-2.45-.46-3.68s-.37-2.31-.56-3.47c0-.6-.09-1.19-.11-1.8s0-1.46,0-2.19a1.81,1.81,0,0,0-.93-1.71c0-2.67,0-5.33,0-8a3,3,0,0,0-.06-.37c-.23.08-.43.13-.61.2l-1.29.5-1.47-.54c-.67-.23-1.35-.43-2-.65.13-.26-.07-.43-.18-.62a11.81,11.81,0,0,0-4.37-4.14,12.42,12.42,0,0,0-3.74-1.4c-.35-.49-.92-.36-1.39-.49l-2-.16c-.09-.8-.17-1.55-.26-2.29,0-.19-.08-.39-.12-.59l-.17-2.88a4.88,4.88,0,0,1,1.4-1.16l.06,1h4.6c.35-2.38.7-4.73,1-7.09h.11c.29,2.36.59,4.72.88,7.11.88,0,1.69,0,2.53,0v-.5a55.33,55.33,0,0,0-.47-6.16,32.2,32.2,0,0,0-2.42-8.77,17.52,17.52,0,0,0-5.1-6.87,10.93,10.93,0,0,0-12-1.47,14.72,14.72,0,0,0-5.35,4.31A25.34,25.34,0,0,0,136.19,62a40.31,40.31,0,0,0-1.38,8.37c0,.6,0,1.21,0,1.86.68,0,1.32,0,2,0a.82.82,0,0,0,.8-.46c.77-1.28,1.56-2.54,2.35-3.81.1-.16.22-.32.33-.48l.08,0c-.23,1.55-.47,3.09-.71,4.7h4.23l2.26,0,0,.15c-.08,1-.16,1.92-.23,2.89l-.32,2.89-2,.16c-.31,0-.64.09-1,.17s-.42,0-.44.33a5.51,5.51,0,0,0-.61.11c-.64.21-1.28.41-1.9.68a12,12,0,0,0-5.62,4.74c-.12.19-.3.37-.16.63-1,.19-2,.38-3.05.59-.56.12-1.11.3-1.67.45l-1.53-.57v8.38a1.69,1.69,0,0,0-1.08,1.67c0,1.59,0,3.17.09,4.75a.77.77,0,0,0-.1.23c-.14.89-.26,1.78-.43,2.66a26.28,26.28,0,0,0-.47,6,7.1,7.1,0,0,0,2.52,5.53c-.16,0-.33,0-.49,0-.78-.17-1.55-.38-2.34-.53a16.06,16.06,0,0,0-5.82-.31,9,9,0,0,0-6.8,4.79A10.19,10.19,0,0,0,111.7,125a9.75,9.75,0,0,0,3.62,6.43,10.77,10.77,0,0,0,4.11,1.85,60.4,60.4,0,0,0,6.82,1.19l-.41,1.24-.57,0-17.88,0-6.67,0a5.93,5.93,0,0,0,.1-.72c0-1.14,0-2.29,0-3.43v-2.15c0-.17,0-.34,0-.51V115.1c0-.16,0-.33,0-.5v-2.15c0-.92,0-1.84,0-2.76a1.15,1.15,0,0,0-1.29-1.27H91.74a1.14,1.14,0,0,0-1.13.65h-.14v-8c0-1,0-1.93,0-2.9S90,96.7,89,96.7c-1.7,0-3.41,0-5.11,0-.14,0-.29,0-.44,0A1.2,1.2,0,0,0,82.29,98c0,1,0,2.1,0,3.15v2.52l-.06.89a2,2,0,0,0-1.68-.89c-1.26,0-2.52,0-3.78,0l-3.47,0-.27,0a2.11,2.11,0,0,1,0-.25c.15-.65.31-1.31.45-2a1.85,1.85,0,0,0-.17-1.52,1.65,1.65,0,0,0-1.16-.68c-2.06-.47-4.15-.88-6.19-1.44a1.81,1.81,0,0,0-2.54,1.57c-.83,3.86-1.75,7.69-2.64,11.54Q58.91,119.19,57,127.5c-.39,1.7-.79,3.39-1.18,5.09a1.52,1.52,0,0,0,1.24,2c1,.25,2.08.47,3.12.73.73.18,1.45.39,2.18.59l-10.7,0c-1.4,0-2.81,0-4.21,0,0,0,0-.07.09-.08a2.77,2.77,0,0,0,1.94-2.27c.09-.47.2-.94.29-1.41q.73-3.58,1.48-7.17c.42-2,.84-4.09,1.28-6.13.56-2.7,1.14-5.39,1.71-8.09a9.77,9.77,0,0,0,.14-1H39c.05-.45.1-.91.13-1.37.06-.68.06-1.38.15-2.06.18-1.47.39-2.93.61-4.39s.4-2.81.68-4.2c.65-3.23,1.31-6.46,2.22-9.63s1.79-6.23,2.71-9.34c.44-1.48.94-3,1.44-4.41.19-.57.43-1.13.65-1.69.17.31.35.62.5.93.29.58.56,1.16.89,1.85,1.12-1.1,1.92-2.33,3-3.33a1.93,1.93,0,0,1-.1.6c-.38,1.28-.78,2.56-1.16,3.85A1.46,1.46,0,0,0,51,78.06c.71.83,1.36,1.7,2,2.54,1,1.23,2,2.45,3.05,3.67a10.24,10.24,0,0,0,.74.72,4.91,4.91,0,0,0,.46-.51c.81-1.14,1.63-2.28,2.42-3.44,1.25-1.83,2.48-3.68,3.72-5.52.85-1.29.83-1.6-.11-2.82s-1.82-2.4-2.72-3.61a1.88,1.88,0,0,1-.14-.49c.33.2.52.31.71.44,1.4,1,2.79,1.93,4.19,2.88.58.4.61.39,1-.18a.1.1,0,0,0,0,0c2.13-2.93,4.3-5.83,6.17-8.94a8.26,8.26,0,0,0,1.15-2.37,1.34,1.34,0,0,0,0-.66,2.81,2.81,0,0,0-.49-.88c-.61-.74-1.25-1.46-1.91-2.17a10.62,10.62,0,0,0-.94-.82l-2.56-2.23a1.67,1.67,0,0,1-.17-.26c2.34,1,4.51,2.33,6.84,3.47.07-1,.17-1.88.18-2.77,0-1.28-.06-2.56-.12-3.83a15.5,15.5,0,0,0-.21-1.8C74.25,47.73,74.09,47,73.94,46.34Zm108.94-7.27-2,.19a15.66,15.66,0,0,0-1.68.16,25.37,25.37,0,0,0-4.89,1.36,14.06,14.06,0,0,0-5.41,3.65A7.49,7.49,0,0,0,167.32,47a6.23,6.23,0,0,0-.26,3.15A8,8,0,0,0,168.88,54a1.17,1.17,0,0,1,.33,1.09q-.44,1.77-.81,3.54a10.07,10.07,0,0,0-.3,2.68c0,.52.26.72.77.66a2.14,2.14,0,0,0,.48-.13c.41-.17.81-.34,1.21-.53,1.82-.86,3.64-1.74,5.46-2.59a1.11,1.11,0,0,1,.66-.12,27.05,27.05,0,0,0,4.19.75l2.87.22a2.09,2.09,0,0,0,.25,0l1.06-.11a6.43,6.43,0,0,0,.76,0c1.23-.24,2.46-.44,3.68-.75a15.18,15.18,0,0,0,6.52-3.5,9.43,9.43,0,0,0,2.92-4.62,6.3,6.3,0,0,0,0-3.47,7.74,7.74,0,0,0-3-4.14,16,16,0,0,0-4.3-2.2,23.68,23.68,0,0,0-4.68-1.14Z"/><path class="cls-2" d="M9.72,88.34c-.14-.35-.25-.71-.42-1C8.23,85.13,7.13,83,6.06,80.8a21.93,21.93,0,0,1-1.51-4,12,12,0,0,1,.18-6.75,24.52,24.52,0,0,1,2.5-5.55,8.88,8.88,0,0,0,.53-1.07A17.52,17.52,0,0,0,5,65.84c-1,.81-1.84,1.71-2.84,2.65a6.69,6.69,0,0,1-.36-.69A31.14,31.14,0,0,1,.27,62.35C.18,61.8.16,61.23.11,60.67S0,59.46,0,58.85a18.44,18.44,0,0,1,2.53-9.36,17.24,17.24,0,0,1,4.92-5.32,14.7,14.7,0,0,1,5.63-2.56,7.72,7.72,0,0,1,4.63.29,3.91,3.91,0,0,1,2.35,3.37,8.92,8.92,0,0,1-.27,3,4.93,4.93,0,0,1-.42,1A9.75,9.75,0,0,0,18,53.18a5.1,5.1,0,0,0,1.35,4.3.53.53,0,0,0,.14.12s.08,0,.21.07c.4-.44.85-.91,1.25-1.41a9,9,0,0,0,1.86-3.74,3.18,3.18,0,0,0,.07-.62c.05-1.18,0-2.35.14-3.52a4.71,4.71,0,0,1,2.53-3.89,8,8,0,0,1,2.92-.93,14.76,14.76,0,0,1,2.2-.13,5.88,5.88,0,0,1,4.67,2.34A10.64,10.64,0,0,1,37.39,50a5.89,5.89,0,0,0,.21.59l.25,1.63-2-.75a13.29,13.29,0,0,0-3.59-.76c.37.19.76.31,1.13.48.62.28,1.22.6,1.83.9l.73.68a9.1,9.1,0,0,1,2.4,4.13,17,17,0,0,1,.55,5.64,27.37,27.37,0,0,1-.26,3.25c-.29,1.57-.5,3.17-.85,4.74-.38,1.75-.87,3.49-1.32,5.23a2.55,2.55,0,0,1-.23.49c-1.52-1-3-2-4.47-3s-2.88-2-4.43-2.89a.33.33,0,0,0,.07.24c1.39,1.27,2.8,2.53,4.17,3.82.67.64,1.27,1.34,1.89,2,.31.34.59.71.88,1.06a1,1,0,0,1,0,1.27l-2,3-1.19,1.84c-.41.58-.83,1.16-1.23,1.75a1.66,1.66,0,0,0-.15.41c-.35.44-.72.86-1,1.32-1.33,1.88-2.64,3.77-4,5.65q-2.54,3.63-5.09,7.25c-.25.37-.53.72-.86,1.16L17.2,98.94c-1.78-2.49-3.52-5-5.34-7.45a1.66,1.66,0,0,1-.16-1.95q1.26-2.43,2.51-4.87a3.54,3.54,0,0,0,.16-.4,1.62,1.62,0,0,0-.32.19c-.71.65-1.41,1.32-2.11,2l-1.89,1.76A1.24,1.24,0,0,1,9.72,88.34ZM7.94,63.11l0,0s0,0,0,0l.05-.06,0,0s0,0,0,0Z"/><path class="cls-2" d="M73.94,46.34c.15.7.31,1.39.43,2.09a15.5,15.5,0,0,1,.21,1.8c.06,1.27.12,2.55.12,3.83,0,.89-.11,1.78-.18,2.77-2.33-1.14-4.5-2.44-6.84-3.47a1.67,1.67,0,0,0,.17.26l2.56,2.23a10.62,10.62,0,0,1,.94.82c.66.71,1.3,1.43,1.91,2.17a2.81,2.81,0,0,1,.49.88,1.34,1.34,0,0,1,0,.66,8.26,8.26,0,0,1-1.15,2.37c-1.87,3.11-4,6-6.17,8.94a.1.1,0,0,1,0,0c-.44.57-.47.58-1,.18C63.93,71,62.54,70,61.14,69c-.19-.13-.38-.24-.71-.44a1.88,1.88,0,0,0,.14.49c.9,1.21,1.8,2.41,2.72,3.61s1,1.53.11,2.82c-1.24,1.84-2.47,3.69-3.72,5.52-.79,1.16-1.61,2.3-2.42,3.44a4.91,4.91,0,0,1-.46.51,10.24,10.24,0,0,1-.74-.72c-1-1.22-2-2.44-3.05-3.67-.69-.84-1.34-1.71-2-2.54a1.46,1.46,0,0,1-.29-1.46c.38-1.29.78-2.57,1.16-3.85a1.93,1.93,0,0,0,.1-.6c-1,1-1.85,2.23-3,3.33-.33-.69-.6-1.27-.89-1.85-.15-.31-.33-.62-.5-.93.06-.24.1-.49.18-.73.31-.85.61-1.69.94-2.53C50.1,65.8,51.47,62.15,53,58.55c1.28-3.13,2.7-6.19,4-9.29a3,3,0,0,0,.16-.53l.12-.13.13-.38,0,0,0,0-.25.26v.24a4.86,4.86,0,0,0-.6.6c-.87,1.26-1.77,2.51-2.57,3.8-1.14,1.84-2.27,3.68-3.3,5.58s-2,3.92-3,5.9c-.44.91-.78,1.86-1.22,2.76-.22.44-.26,1-.69,1.32-.63-1.51-1.28-3-1.88-4.53-.69-1.77-1.34-3.55-2-5.35a3.38,3.38,0,0,1,.37-3.06,11.68,11.68,0,0,1,1.49-1.93c.7-.72,1.41-1.42,2.12-2.13l.44-.46-.08-.11L40.88,52.9V49.48a26.21,26.21,0,0,1,1.77-8.38A14.38,14.38,0,0,1,46.17,36a8.62,8.62,0,0,1,4.66-2.32c2.53-.34,4.88.47,6.05,2.95a6.66,6.66,0,0,1,.58,3.85,17.29,17.29,0,0,1-.86,3.4,3.11,3.11,0,0,0,.06,2.5,12.38,12.38,0,0,0,.6,1.14c.22.33.48.34.69,0a13.5,13.5,0,0,0,.61-1.27,6.79,6.79,0,0,0,.35-1.69,8.58,8.58,0,0,1,2-5.46,14.84,14.84,0,0,1,1.55-1.89,8.55,8.55,0,0,1,3.73-2.59,2.38,2.38,0,0,1,2.54.59,13.08,13.08,0,0,1,2.41,3.65,41.08,41.08,0,0,1,2.07,5.33c.08.23.11.47.19.8l-2.6-.59-2.49-.58,0,.12a1.61,1.61,0,0,0,.28.17l4.89,2A4.14,4.14,0,0,1,73.94,46.34Zm-6.2-2.63v0h.19v0Z"/><path class="cls-2" d="M39,109.79h15.4a9.77,9.77,0,0,1-.14,1c-.57,2.7-1.15,5.39-1.71,8.09-.44,2-.86,4.08-1.28,6.13q-.75,3.58-1.48,7.17c-.09.47-.2.94-.29,1.41a2.77,2.77,0,0,1-1.94,2.27s-.06,0-.09.08l-.32,0-8.68.07-6,0a1.87,1.87,0,0,0-.5.14c-.07,0-.14.1-.21.1l-1.93,0-.13-.2-.13.2a5.31,5.31,0,0,1-2.27-.25c-.08-.08-.15-.21-.25-.25a2.82,2.82,0,0,1-1.83-2.29c-.38-1.9-.77-3.81-1.17-5.71-.52-2.49-1.07-5-1.59-7.47-.63-3-1.25-6-1.86-9-.11-.51-.19-1-.29-1.59H39Z"/><path class="cls-1" d="M35.59,109.79H20.32c.1.58.18,1.08.29,1.59.61,3,1.23,6,1.86,9,.52,2.49,1.07,5,1.59,7.47.4,1.9.79,3.81,1.17,5.71a2.82,2.82,0,0,0,1.83,2.29c.1,0,.17.17.25.25s-.07.27-.25.25c0-.08,0-.23,0-.23a2.08,2.08,0,0,0-.43,0H22.33c-.82-1-1.67-2.09-2.47-3.16a47,47,0,0,1-3.42-5.19c-.68-1.23-1.41-2.44-2-3.7a62.38,62.38,0,0,1-2.57-6,53.2,53.2,0,0,1-1.93-6.5c-.33-1.49-.61-3-.83-4.49-.19-1.3-.25-2.62-.4-3.93a56,56,0,0,1-.1-6.48,27.34,27.34,0,0,1,.35-3.36c.19-1.38.42-2.76.64-4.14,0-.25.09-.49.14-.74a1.24,1.24,0,0,0,.33-.15l1.89-1.76c.7-.65,1.4-1.32,2.11-2a1.62,1.62,0,0,1,.32-.19,3.54,3.54,0,0,1-.16.4Q13,87.12,11.7,89.54a1.66,1.66,0,0,0,.16,1.95c1.82,2.45,3.56,5,5.34,7.45l1.63,2.27c.33-.44.61-.79.86-1.16q2.55-3.61,5.09-7.25c1.32-1.88,2.63-3.77,4-5.65.32-.46.69-.88,1-1.32a1.12,1.12,0,0,1,.2.3c.43,1.4.89,2.79,1.27,4.2.82,3,1.6,6,2.38,9,.26,1,.48,2,.69,3,.3,1.47.59,2.94.85,4.42C35.35,107.76,35.45,108.78,35.59,109.79Z"/><path class="cls-3" d="M32,136.19a1.87,1.87,0,0,1,.5-.14l6,0,8.68-.07.32,0c1.4,0,2.81,0,4.21,0l10.7,0,3,0,6.52,0a2.35,2.35,0,0,0,.37,0l.37,0H81l.94,0h18.74l6.67,0,17.88,0,.57,0c.18,0,.37,0,.55,0l12.71,0c.36,0,.72,0,1.07,0a1.56,1.56,0,0,0,.41-.11,7.24,7.24,0,0,0,.92.12h17.89l.56,0,8.38,0c2.35,0,4.7,0,7,0,.23,0,.46,0,.69,0,.54,0,1.09.05,1.63.05l17.48,0,.57,0c.18,0,.37,0,.56,0l14.34,0,1.25,0a1.65,1.65,0,0,0,.31,0l9.89.05c.11,0,.21,0,.32,0,.56,0,1.13,0,1.69,0a.64.64,0,0,0,.66-.37c.41-.71.84-1.41,1.26-2.11l3-5,.67.14a17,17,0,0,0,5.46.48c.61,0,1.22,0,1.82,0,.81-.05,1.62-.17,2.47-.26.32.53.65,1.06,1,1.6,1,1.73,2.07,3.46,3.12,5.19.1.17.26.41.41.43a11.39,11.39,0,0,0,2,0c-1.57-2.61-3.08-5.14-4.59-7.66.09-.08.11-.12.15-.13s.35-.15.52-.21a15,15,0,0,0,4.15-2.36c.33-.26.65-.53,1-.8.56.25,1.12.48,1.67.75a14.07,14.07,0,0,1,7.34,8.08c.27.78.44,1.6.66,2.41v.23c-2.24,0-4.49,0-6.73.06-1.68,0-3.36.06-5,.07-3,0-6,0-8.94,0a1.08,1.08,0,0,0-.29-.09h-2.57a1.11,1.11,0,0,0-.29.1c-1.15,0-2.3,0-3.46,0l-22.93.1h-.25a1.5,1.5,0,0,0-.35-.09h-4a1.24,1.24,0,0,0-.35.1l-5.86,0-11.17,0-17.66.05H107.32l-14.26-.05-10.85,0-.57,0a.79.79,0,0,0-.28-.1H77.15a1.08,1.08,0,0,0-.29.09l-12.79,0-9.95-.05-4,0a1.54,1.54,0,0,0-.35-.1H47.3a1.39,1.39,0,0,0-.35.09l-12-.06c-.82,0-1.64,0-2.46,0C32.35,136.33,32.11,136.45,32,136.19Z"/><path class="cls-2" d="M256.83,136.06c-.22-.81-.39-1.63-.66-2.41a14.07,14.07,0,0,0-7.34-8.08c-.55-.27-1.11-.5-1.67-.75a27.76,27.76,0,0,0,2.16-2.7,17.28,17.28,0,0,0,1.77-15c-.27-.85-.67-1.67-1-2.5.15,0,.35,0,.44.11a38.65,38.65,0,0,1,3.11,3.29,22.35,22.35,0,0,1,4.34,9.79c.15.8.23,1.6.41,2.43.15-.69.29-1.37.46-2s.38-1.42.63-2.11a22,22,0,0,1,1.83-3.92c.37-.64.77-1.26,1.18-1.86s.84-1.2,1.29-1.78.92-1.12,1.38-1.68l.16,0c.05.3.12.59.16.88q.18,1.3.33,2.61c.09.66.16,1.32.23,2s.11,1.12.15,1.68c.05,1,.08,1.93.13,2.89s.16,2.21.24,3.31c0,.07,0,.13,0,.19,0,1.55.09,3.1.13,4.65,0,1.89.08,3.78.13,5.67,0,1.15.09,2.3.14,3.45,0,.63,0,1.27,0,1.9l-3.5,0Z"/><path class="cls-1" d="M40.88,49.48V52.9l5.42-1.79.08.11-.44.46c-.71.71-1.42,1.41-2.12,2.13a11.68,11.68,0,0,0-1.49,1.93A3.38,3.38,0,0,0,42,58.8c.63,1.8,1.28,3.58,2,5.35.6,1.52,1.25,3,1.88,4.53a3.74,3.74,0,0,1-.16.66c-.48,1.27-1,2.52-1.48,3.8q-1.06,3-2.06,6.07c-.6,1.85-1.2,3.71-1.69,5.59q-1.06,4-2,8c-.51,2.26-.92,4.54-1.37,6.81-.09.4-.18.8-.29,1.33-.1-.26-.15-.38-.19-.5-.43-1.5-.85-3-1.29-4.52-.39-1.3-.8-2.6-1.22-3.89-.89-2.69-1.78-5.37-2.69-8a1.15,1.15,0,0,0-.25-.34l1.19-1.84,2-3a1,1,0,0,0,0-1.27c-.29-.35-.57-.72-.88-1.06-.62-.68-1.22-1.38-1.89-2-1.37-1.29-2.78-2.55-4.17-3.82a.33.33,0,0,1-.07-.24c1.55.87,3,1.91,4.43,2.89s3,2,4.47,3a2.55,2.55,0,0,0,.23-.49c.45-1.74.94-3.48,1.32-5.23.35-1.57.56-3.17.85-4.74a27.37,27.37,0,0,0,.26-3.25,17,17,0,0,0-.55-5.64,9.1,9.1,0,0,0-2.4-4.13l-.73-.68.26-.31.37-.31,2,.75-.25-1.63L39.35,50Z"/><path class="cls-4" d="M22.33,136h4.28a2.08,2.08,0,0,1,.43,0s0,.15,0,.23h-7.5c-1.94,0-3.87,0-5.8-.07-.93,0-1.85,0-2.77-.08a4.52,4.52,0,0,0-.52,0c1.29,0,2.57,0,3.86,0l6.74-.09Z"/><path class="cls-1" d="M58.56,46.2A13.5,13.5,0,0,1,58,47.47c-.21.34-.47.33-.69,0a12.38,12.38,0,0,1-.6-1.14Z"/><path class="cls-4" d="M256.83,136.06l6.58,0c0,.05,0,.11,0,.17-.88,0-1.76,0-2.64,0l-4,0Z"/><path class="cls-5" d="M263.43,136.27c0-.06,0-.12,0-.17l3.5,0,1.22.06,0,.14Z"/><path class="cls-4" d="M76.86,136.54a1.08,1.08,0,0,1,.29-.09h4.21a.79.79,0,0,1,.28.1Z"/><path class="cls-4" d="M201.68,136.55a1.24,1.24,0,0,1,.35-.1h4a1.5,1.5,0,0,1,.35.09l-2.7,0C203,136.58,202.33,136.56,201.68,136.55Z"/><path class="cls-2" d="M268.16,136.27l0-.14a3.57,3.57,0,0,1,.56-.07h3.52c.14,0,.29,0,.43,0v.09l0,.05Z"/><path class="cls-4" d="M47,136.41a1.39,1.39,0,0,1,.35-.09h2.44a1.54,1.54,0,0,1,.35.1Z"/><path class="cls-4" d="M233,136.42a1.11,1.11,0,0,1,.29-.1h2.57a1.08,1.08,0,0,1,.29.09Z"/><path class="cls-3" d="M29.58,136.31l.13-.2.13.2Z"/><path class="cls-6" d="M159.39,135.68H141.5a7.24,7.24,0,0,1-.92-.12c-1.49-.08-3-.12-4.45-.24-3.3-.26-6.59-.57-9.88-.86a60.4,60.4,0,0,1-6.82-1.19,10.77,10.77,0,0,1-4.11-1.85A9.75,9.75,0,0,1,111.7,125a10.19,10.19,0,0,1,1.07-6.48,9,9,0,0,1,6.8-4.79,16.06,16.06,0,0,1,5.82.31c.79.15,1.56.36,2.34.53.16,0,.33,0,.49,0h0l.13.09,4,1.27a.71.71,0,0,0,.25,0c.38.17.76.35,1.15.49,3.61,1.25,7.11,2.76,10.59,4.32,2,.89,3.91,1.86,5.86,2.78a5.93,5.93,0,0,0,.71.24,3.57,3.57,0,0,0,.43.34c1,.49,1.94,1,2.91,1.45,1.74.91,3.47,1.84,5.22,2.73a.64.64,0,0,1,.41.69c0,.25-.12.55.17.75a1.69,1.69,0,0,0-.27.6C159.65,132.13,159.53,133.91,159.39,135.68Z"/><path class="cls-7" d="M168.08,19.37c.24.95.54,1.89.7,2.86.25,1.41.41,2.85.61,4.27H133.77A26.13,26.13,0,0,1,136.11,17,15.61,15.61,0,0,1,147.54,8.1a17.19,17.19,0,0,1,3.56-.46c5.84,0,10.89,1.87,14.45,6.8a6.51,6.51,0,0,0,.51.54,4,4,0,0,0,.18.52c.43.9.87,1.79,1.31,2.69C167.73,18.58,167.9,19,168.08,19.37Z"/><path class="cls-8" d="M182.88,39.07l4.06.55a23.68,23.68,0,0,1,4.68,1.14,16,16,0,0,1,4.3,2.2,7.74,7.74,0,0,1,3,4.14,6.3,6.3,0,0,1,0,3.47A9.43,9.43,0,0,1,196,55.19a15.18,15.18,0,0,1-6.52,3.5c-1.22.31-2.45.51-3.68.75a6.43,6.43,0,0,1-.76,0l-1.06.11a2.09,2.09,0,0,1-.25,0l-2.87-.22a27.05,27.05,0,0,1-4.19-.75,1.11,1.11,0,0,0-.66.12c-1.82.85-3.64,1.73-5.46,2.59-.4.19-.8.36-1.21.53a2.14,2.14,0,0,1-.48.13c-.51.06-.73-.14-.77-.66a10.07,10.07,0,0,1,.3-2.68q.38-1.77.81-3.54a1.17,1.17,0,0,0-.33-1.09,8,8,0,0,1-1.82-3.81,6.23,6.23,0,0,1,.26-3.15,7.49,7.49,0,0,1,1.59-2.61,14.06,14.06,0,0,1,5.41-3.65,25.37,25.37,0,0,1,4.89-1.36,15.66,15.66,0,0,1,1.68-.16Zm-7.46,8.64a1.44,1.44,0,1,0,0,2.87,1.38,1.38,0,0,0,1.41-1.44A1.34,1.34,0,0,0,175.42,47.71Zm8.35,2.78a1.36,1.36,0,0,0,1.5-1.3,1.46,1.46,0,0,0-2.92,0A1.26,1.26,0,0,0,183.77,50.49Zm8.44,0a1.36,1.36,0,0,0,1.51-1.33,1.44,1.44,0,0,0-1.5-1.45,1.31,1.31,0,0,0-1.41,1.4A1.25,1.25,0,0,0,192.21,50.49Z"/><path class="cls-9" d="M160.08,129.77c-.29-.2-.18-.5-.17-.75a.64.64,0,0,0-.41-.69c-1.75-.89-3.48-1.82-5.22-2.73-1-.49-1.95-1-2.91-1.45a3.57,3.57,0,0,1-.43-.34c.33-.18.65-.38,1-.54,1.17-.56,2.34-1.11,3.52-1.65l4.51-2c.49-.22,1-.47,1.46-.71l2.34-.89,4.61-1.78,5-1.55c1.44-.3,2.87-.64,4.32-.89a12,12,0,0,1,5.74.27,8.92,8.92,0,0,1,6,6,10.48,10.48,0,0,1-.53,8.09,9.06,9.06,0,0,1-5.5,4.8,31.82,31.82,0,0,1-5.1,1.13l-2.68.41c-.07-.05-.16-.08-.2-.14a3.58,3.58,0,0,0-1.7-1.13c-1.93-.71-3.85-1.45-5.77-2.17a1.76,1.76,0,0,1-.8-.57c-.46-.57-1-1.11-1.43-1.67a1.26,1.26,0,0,0-1.27-.52,11.26,11.26,0,0,0-2,.45C161.66,129,160.88,129.4,160.08,129.77Z"/><path class="cls-10" d="M171.18,86.1l1.29-.5c.18-.07.38-.12.61-.2a3,3,0,0,1,.06.37c0,2.67,0,5.33,0,8-.37.17-.76.32-1.12.52a19.61,19.61,0,0,0-2.24,1.27,2.8,2.8,0,0,0-1.34,3.31,3.5,3.5,0,0,0,4.24,2.58c.16,0,.32-.07.49-.11v3.33c0,1.11,0,2.22,0,3.33a.7.7,0,0,1-.53.8l-.29.12-3.73,1.65-.3.11-11.08,4.83c-1.1.48-2.18,1-3.27,1.48l-1.49.57c0-1.83,0-3.66,0-5.49v-18l6.72-2.83,10.77-4.53C170.37,86.52,170.77,86.3,171.18,86.1Z"/><path class="cls-10" d="M127.69,93.77V85.39l1.53.57c.79.35,1.57.7,2.36,1l11,4.64,5.73,2.43c0,.29,0,.59,0,.88q0,11.3,0,22.6c-.19-.07-.4-.13-.59-.22l-11.32-4.94c-1.33-.58-2.66-1.14-4-1.71l-4.17-1.86c-.49-.21-.5-.2-.5-.73,0-2.24,0-4.48,0-6.73a5.74,5.74,0,0,0,1.35.21,3.63,3.63,0,0,0,2.05-.83,3.2,3.2,0,0,0,0-5.08A23.58,23.58,0,0,0,127.69,93.77Z"/><path class="cls-11" d="M146.12,72.17l-2.26,0h-4.23c.24-1.61.48-3.15.71-4.7l-.08,0c-.11.16-.23.32-.33.48-.79,1.27-1.58,2.53-2.35,3.81a.82.82,0,0,1-.8.46c-.65,0-1.29,0-2,0,0-.65,0-1.26,0-1.86A40.31,40.31,0,0,1,136.19,62a25.34,25.34,0,0,1,4.57-9.26,14.72,14.72,0,0,1,5.35-4.31,10.93,10.93,0,0,1,12,1.47,17.52,17.52,0,0,1,5.1,6.87,32.2,32.2,0,0,1,2.42,8.77,55.33,55.33,0,0,1,.47,6.16v.5c-.84,0-1.65,0-2.53,0-.29-2.39-.59-4.75-.88-7.11h-.11c-.34,2.36-.69,4.71-1,7.09h-4.6l-.06-1a1.88,1.88,0,0,1,.21-.37,11.2,11.2,0,0,0,2.62-5.53,1.63,1.63,0,0,0,1.41-.91,6.67,6.67,0,0,0,.53-1.34,3.64,3.64,0,0,0-.1-2.52,1.22,1.22,0,0,0-1.62-.78,5.32,5.32,0,0,1-.67-.14c-1.22-.36-2.44-.75-3.67-1.1-.48-.14-1-.21-1.49-.31-.42-2-.84-4.06-1.26-6.07l-.13,0v6.34a1,1,0,0,1-.22.08c-1.28.13-2.56.24-3.83.39-2,.24-4.08.49-6.12.78a2,2,0,0,1-.9,0,1.26,1.26,0,0,0-1.6,1,4.52,4.52,0,0,0,.65,3.84,1.32,1.32,0,0,0,1.21.67c.07.22.16.43.21.65A10.2,10.2,0,0,0,146.12,72.17Z"/><path class="cls-12" d="M65.36,135.87l-3,0c-.73-.2-1.45-.41-2.18-.59-1-.26-2.09-.48-3.12-.73a1.52,1.52,0,0,1-1.24-2c.39-1.7.79-3.39,1.18-5.09q1.92-8.31,3.82-16.62c.89-3.85,1.81-7.68,2.64-11.54A1.81,1.81,0,0,1,66,97.77c2,.56,4.13,1,6.19,1.44a1.65,1.65,0,0,1,1.16.68,1.85,1.85,0,0,1,.17,1.52c-.14.65-.3,1.31-.45,2a2.11,2.11,0,0,0,0,.25l-.18.73-.1.39L72.48,106l0,.25-.26,1.15s0,0,0,.09l-.25,1a.48.48,0,0,0-.08.16q-1.69,7.36-3.38,14.72c-.75,3.23-1.47,6.46-2.24,9.68A7.66,7.66,0,0,1,65.36,135.87Zm3.8-26.7c-.13.4-.28.79-.38,1.19-1.16,4.43-2.16,8.91-3.11,13.39-.09.45-.15.9-.23,1.35a1.55,1.55,0,0,0,.31-.68c1-4.12,1.94-8.23,2.89-12.35.22-1,.34-1.93.51-2.9l0,0Zm-10.51,19.2,6.46,1.49.41-1.78-6.45-1.49Zm5.92-25.75,6.48,1.49.39-1.78L65,100.85ZM58,131.19l6.45,1.49.42-1.74c-.25-.07-.46-.14-.68-.19l-3.8-.89-1.53-.35c-.2,0-.45-.07-.52.2C58.22,130.17,58.12,130.64,58,131.19Zm5.94-25.74,6.45,1.48.41-1.77c-2.18-.5-4.28-1-6.47-1.46Zm-1.06,19.36Q65.05,117,66.52,109C65.07,114.21,63.84,119.48,62.88,124.81Zm-2.56-.58c1.45-5.18,2.64-10.41,3.62-15.7C62.48,113.71,61.3,119,60.32,124.23Z"/><path class="cls-13" d="M235.15,129a17,17,0,0,1-5.46-.48l-.67-.14-1.82-.56a2.63,2.63,0,0,0-.39-.29c-.51-.28-1-.54-1.54-.8a15.53,15.53,0,0,1-4.26-4,15.94,15.94,0,0,1-2.78-6.48,17.87,17.87,0,0,1-.36-3.25,16.9,16.9,0,0,1,3.36-10.54,14.34,14.34,0,0,1,4.15-3.72c.16-.1.3-.22.46-.33l1.71-.8a27.26,27.26,0,0,1,4.62-1.11l2.82,0a.41.41,0,0,0,.17-.07l.74,0c.08.06.15.16.23.17a15.49,15.49,0,0,1,6.33,2.09,15.12,15.12,0,0,1,3.86,3.3,15.35,15.35,0,0,1,2.19,3.59,17.4,17.4,0,0,1,1.28,9.94,17.34,17.34,0,0,1-1.5,4.84,15,15,0,0,1-9.5,7.95A18.63,18.63,0,0,1,235.15,129Zm-12.91-9.61h0a7.62,7.62,0,0,0,1.75,2.51,13,13,0,0,0,8.28,4,14.35,14.35,0,0,0,7.29-1,12.25,12.25,0,0,0,6.32-5.8,13.87,13.87,0,0,0,1.4-7.94,13,13,0,0,0-2.4-6.4,9.39,9.39,0,0,0-2.29-2.33,11,11,0,0,0-3.53-2,14.51,14.51,0,0,0-7.06-.76,12.94,12.94,0,0,0-8.22,4.21,13.29,13.29,0,0,0-3.25,9.23,14.15,14.15,0,0,0,.37,2.8,9.65,9.65,0,0,0,1.24,3.34Z"/><path class="cls-8" d="M211.9,135.81l-1.25,0-14.34,0c-.19,0-.38,0-.56,0a2.19,2.19,0,0,0-.23-.21A3.05,3.05,0,0,1,194,133a17.52,17.52,0,0,1-.14-2.51c0-1.25.08-2.51.12-3.77,0-1,.08-2.09.13-3.14,0-.46.08-.91.12-1.37h18.93c0,3.57,0,7.14,0,10.71a3.18,3.18,0,0,1-1.18,2.71C211.94,135.63,211.93,135.73,211.9,135.81Z"/><path class="cls-14" d="M159.67,65.28a11.2,11.2,0,0,1-2.62,5.53,1.88,1.88,0,0,0-.21.37,4.88,4.88,0,0,0-1.4,1.16,2.7,2.7,0,0,0-.47.12c-.45.21-.88.48-1.34.65a7.23,7.23,0,0,1-3.54.5,8.94,8.94,0,0,1-3.52-1.17,1.93,1.93,0,0,0-.41-.12l0-.15a10.2,10.2,0,0,1-4.05-6.29c0-.22-.14-.43-.21-.65s0-.54,0-.81c-.07-.93-.17-1.85-.22-2.78,0-.64,0-1.29,0-1.94a2,2,0,0,0,.9,0c2-.29,4.08-.54,6.12-.78,1.27-.15,2.55-.26,3.83-.39a1,1,0,0,0,.22-.08V52.13l.13,0c.42,2,.84,4,1.26,6.07.51.1,1,.17,1.49.31,1.23.35,2.45.74,3.67,1.1a5.32,5.32,0,0,0,.67.14c0,.73,0,1.46,0,2.19A17.17,17.17,0,0,1,159.67,65.28Z"/><path class="cls-15" d="M31.16,83.67a1.15,1.15,0,0,1,.25.34c.91,2.68,1.8,5.36,2.69,8,.42,1.29.83,2.59,1.22,3.89.44,1.5.86,3,1.29,4.52,0,.12.09.24.19.5.11-.53.2-.93.29-1.33.45-2.27.86-4.55,1.37-6.81q.9-4,2-8c.49-1.88,1.09-3.74,1.69-5.59q1-3,2.06-6.07c.46-1.28,1-2.53,1.48-3.8a3.74,3.74,0,0,0,.16-.66c.43-.33.47-.88.69-1.32.44-.9.78-1.85,1.22-2.76,1-2,1.91-4,3-5.9S52.85,55,54,53.12c.8-1.29,1.7-2.54,2.57-3.8a4.86,4.86,0,0,1,.6-.6h0a3,3,0,0,1-.16.53c-1.35,3.1-2.77,6.16-4,9.29-1.49,3.6-2.86,7.25-4.27,10.89-.33.84-.63,1.68-.94,2.53-.08.24-.12.49-.18.73-.22.56-.46,1.12-.65,1.69-.5,1.46-1,2.93-1.44,4.41-.92,3.11-1.81,6.22-2.71,9.34s-1.57,6.4-2.22,9.63c-.28,1.39-.47,2.8-.68,4.2s-.43,2.92-.61,4.39c-.09.68-.09,1.38-.15,2.06,0,.46-.08.92-.13,1.37H35.59c-.14-1-.24-2-.42-3-.26-1.48-.55-3-.85-4.42-.21-1-.43-2-.69-3-.78-3-1.56-6-2.38-9-.38-1.41-.84-2.8-1.27-4.2a1.12,1.12,0,0,0-.2-.3,1.66,1.66,0,0,1,.15-.41C30.33,84.83,30.75,84.25,31.16,83.67Z"/><path class="cls-16" d="M133.94,84.92c-.14-.26,0-.44.16-.63a12,12,0,0,1,5.62-4.74c.62-.27,1.26-.47,1.9-.68a5.51,5.51,0,0,1,.61-.11c0,.24,0,.47,0,.7a9,9,0,0,0,3.35,7.48,6,6,0,0,0,.59.42l4.55-4.46.22,0,4.35,4.36a.46.46,0,0,0,.16.07,9.16,9.16,0,0,0,3.72-5.29,12.27,12.27,0,0,0,.24-3.31,12.42,12.42,0,0,1,3.74,1.4,11.81,11.81,0,0,1,4.37,4.14c.11.19.31.36.18.62l-.35.11-13,5.21-4,1.62h-.22c-.09,0-.18-.11-.27-.15l-12.34-5.25C136.38,85.93,135.16,85.43,133.94,84.92Z"/><path class="cls-17" d="M168.08,19.37c-.18-.39-.35-.79-.53-1.18-.44-.9-.88-1.79-1.31-2.69a4,4,0,0,1-.18-.52c1.48.79,3,1.56,4.45,2.36l48.22,25.93c.17.09.33.19.49.29,0,.09-.05.22-.12.27a6.79,6.79,0,0,0-1.64,1.7c-.06.09-.2.13-.3.2L212.1,43,168.3,19.48Z"/><path class="cls-9" d="M100.8,114.6c0,.17,0,.34,0,.5V129c0,.17,0,.34,0,.51h-10l-.12,0,0,0s0,0-.08.08L90.45,131H82.32l-.06-1.13v-.38l.06-1.13h4c.69,0,1.39,0,2.08,0s1.33,0,2,0v-1.12H82.32v-2.64h6.12c.66,0,1.33,0,2,0v-3.35c0-1.09,0-2.19,0-3.28s0-2.17,0-3.31Zm-8.55,7.69a3.3,3.3,0,0,0,3.36,3.43,3.52,3.52,0,0,0,3.49-3.3,3.44,3.44,0,0,0-3.45-3.54C93.84,118.88,92,120.43,92.25,122.29Z"/><path class="cls-18" d="M100.8,114.6H90.49c0,1.14,0,2.23,0,3.31s0,2.19,0,3.28v3.35c-.71,0-1.38,0-2,0H82.32v-.51c.18,0,.34,0,.34-.27v-13c0-.23-.16-.27-.34-.27l-.06-.13v-.12l.06-.63c.18,0,.33,0,.34-.27v-1c0-.23-.16-.27-.34-.27v-.63h8.14v1.52l0,.25c0,.53,0,1,0,1.57a8.4,8.4,0,0,0,.05,1.58H100.8Z"/><path class="cls-19" d="M169.49,30.42c0,1.26-.09,2.51-.13,3.83l-.74,0h-6.85l-.69,0-.63,0H141.94l-.63,0-1.12,0H134a14.18,14.18,0,0,1-.31-3.87h35.81Z"/><path class="cls-17" d="M235.16,96.45a.41.41,0,0,1-.17.07l-2.82,0Q229,82,225.82,67.45c-1-4.57-2-9.15-3-13.72a1.21,1.21,0,0,0-.05-.18l.37-.06a7.74,7.74,0,0,0,2.39-1c.33,1.49.67,3,1,4.48q2.12,9.66,4.22,19.32L235,95.71C235.05,96,235.11,96.21,235.16,96.45Z"/><path class="cls-10" d="M141.31,34.32l.63,0h18.51l.63,0a8.62,8.62,0,0,1-1.62,3,10.13,10.13,0,0,1-6.24,3.85,10.49,10.49,0,0,1-11.76-6.4C141.4,34.65,141.36,34.48,141.31,34.32Z"/><path class="cls-2" d="M195.75,112.33v-1c.73-.47,1.54-.11,2.36-.31l0-.78-1.15,0h-1.19v-1.13h2.29v-.87h-2.3V107.1c.71-.4,1.52-.07,2.3-.26V106h-2.3V104.9h2.29V104c-.73-.12-1.48,0-2.28-.08v-1.1h2.29v-1h-2.31v-1.13h2.3v-.87H195.8V98.74c.73-.12,1.48,0,2.28-.08v-1h-2.29V96.56h2.31v-.87h-2.3V93.26A46.53,46.53,0,0,1,202,93.2l0,1-1,0v18.1a5.54,5.54,0,0,1-.83.14Z"/><path class="cls-20" d="M235.15,129a18.63,18.63,0,0,0,3.64-.64,15,15,0,0,0,9.5-7.95,17.34,17.34,0,0,0,1.5-4.84,17.4,17.4,0,0,0-1.28-9.94,15.35,15.35,0,0,0-2.19-3.59,15.12,15.12,0,0,0-3.86-3.3,15.49,15.49,0,0,0-6.33-2.09c-.08,0-.15-.11-.23-.17a17.31,17.31,0,0,1,5.49.86l.66.19,1.71.76c.41.25.83.5,1.23.76a15,15,0,0,1,4.61,4.77c.09.14.18.28.28.41l.12.15h0l.12.14a.05.05,0,0,0,0,0c.35.83.75,1.65,1,2.5a17.28,17.28,0,0,1-1.77,15,27.76,27.76,0,0,1-2.16,2.7c-.32.27-.64.54-1,.8A15,15,0,0,1,242,128c-.17.06-.35.13-.52.21s-.06.05-.15.13c1.51,2.52,3,5.05,4.59,7.66a11.39,11.39,0,0,1-2,0c-.15,0-.31-.26-.41-.43-1.05-1.73-2.08-3.46-3.12-5.19-.32-.54-.65-1.07-1-1.6-.85.09-1.66.21-2.47.26C236.37,129.07,235.76,129,235.15,129Z"/><path class="cls-15" d="M195.75,112.33l4.46.11a5.54,5.54,0,0,0,.83-.14V94.2l1,0v18.12c.86.07,1.7,0,2.53,0h8.57v3.39H194.24c0-.89-.09-1.78-.13-2.67,0-.2,0-.41,0-.63A7.07,7.07,0,0,1,195.75,112.33Z"/><path class="cls-21" d="M160.08,129.77c.8-.37,1.58-.78,2.4-1.08a11.26,11.26,0,0,1,2-.45,1.26,1.26,0,0,1,1.27.52c.47.56,1,1.1,1.43,1.67a1.76,1.76,0,0,0,.8.57c1.92.72,3.84,1.46,5.77,2.17a3.58,3.58,0,0,1,1.7,1.13c0,.06.13.09.2.14.14.42.27.85.41,1.28-.23,0-.46,0-.69,0-2.35,0-4.7,0-7,0l-8.38,0-.56,0c.14-1.77.26-3.55.42-5.31A1.69,1.69,0,0,1,160.08,129.77Z"/><path class="cls-18" d="M169.47,27.39l0,2.15H133.65l0-2.15h35.78Z"/><path class="cls-22" d="M225.55,52.53a7.74,7.74,0,0,1-2.39,1l-.37.06a7.59,7.59,0,0,1-2.42-.26,5.07,5.07,0,0,1-3.57-4.69,6.29,6.29,0,0,1,.33-2.35,1.8,1.8,0,0,0,0-.52c.1-.07.24-.11.3-.2a6.79,6.79,0,0,1,1.64-1.7c.07,0,.08-.18.12-.27a5.83,5.83,0,0,0,.72-.18,5.8,5.8,0,0,1,3.94-.18A5.17,5.17,0,0,1,227.5,49,5.42,5.42,0,0,1,225.55,52.53Zm-3.38-1.4a2.9,2.9,0,1,0,0-5.79,2.9,2.9,0,1,0,0,5.79Z"/><path class="cls-22" d="M82.32,131h8.13l.06-1.37s.06-.07.08-.08l0,0,.12,0h10v2.15l-10.16,0a.09.09,0,0,0,0,0l-.11.1v3.53l-.23.46H82.52l-.25-.51v-2.76Z"/><path class="cls-14" d="M150.92,82.92l-.22,0a4.16,4.16,0,0,0-.48-.46L144,78.54c-.12-.08-.22-.19-.33-.28l2-.16c.11-1,.21-1.93.32-2.89l.12,0a10.3,10.3,0,0,0,7.24.68c.79-.17,1.55-.47,2.32-.71,0,.2.1.4.12.59.09.74.17,1.49.26,2.29l2,.16c-.15.11-.29.24-.44.34l-6.18,3.85A2.93,2.93,0,0,0,150.92,82.92Z"/><path class="cls-23" d="M133.94,84.92c1.22.51,2.44,1,3.65,1.53l12.34,5.25c.09,0,.18.1.27.15a4.28,4.28,0,0,1-.37.57c-.46.54-.94,1.06-1.41,1.59l-.11,0-5.73-2.43-11-4.64c-.79-.33-1.57-.68-2.36-1,.56-.15,1.11-.33,1.67-.45C131.9,85.3,132.92,85.11,133.94,84.92Z"/><path class="cls-23" d="M150.42,91.85l4-1.62,13-5.21.35-.11c.68.22,1.36.42,2,.65l1.47.54c-.41.2-.81.42-1.24.6l-10.77,4.53-6.72,2.83-.12,0c-.42-.44-.85-.87-1.26-1.32A10.46,10.46,0,0,1,150.42,91.85Z"/><path class="cls-24" d="M168.61,110.57l3.73-1.65.29-.12a.7.7,0,0,0,.53-.8c0-1.11,0-2.22,0-3.33v-3.33a.52.52,0,0,1,.08-.23,2.88,2.88,0,0,0,.92-1.64c.19,1.16.39,2.31.56,3.47s.34,2.45.46,3.68a21.25,21.25,0,0,1,.12,2.26,9.23,9.23,0,0,1-.77,3.91,18.09,18.09,0,0,1-1.14,1.88l-5,1.55.06-1.19Z"/><path class="cls-24" d="M127.72,101.35c0,2.25,0,4.49,0,6.73,0,.53,0,.52.5.73l4.17,1.86c0,.23,0,.46,0,.69.07,1.54.16,3.08.24,4.62a.71.71,0,0,1-.25,0l-4-1.27-.13-.09h0a7.1,7.1,0,0,1-2.52-5.53,26.28,26.28,0,0,1,.47-6c.17-.88.29-1.77.43-2.66a.77.77,0,0,1,.1-.23Z"/><path class="cls-2" d="M194.24,115.72h18.92V118H194.23a1.06,1.06,0,0,1-.12-.34q0-.81,0-1.62A1.51,1.51,0,0,1,194.24,115.72Z"/><path class="cls-2" d="M213.16,122.17H194.23c0-.07-.11-.14-.11-.21,0-.62,0-1.25,0-1.87,0-.07.08-.14.12-.2h18.92Z"/><path class="cls-9" d="M90.48,135.33V131.8l.11-.1a.09.09,0,0,1,0,0l10.16,0c0,1.14,0,2.29,0,3.43a5.93,5.93,0,0,1-.1.72h-10Z"/><path class="cls-23" d="M143.62,78.26c.11.09.21.2.33.28l6.27,3.9a4.16,4.16,0,0,1,.48.46l-4.55,4.46a6,6,0,0,1-.59-.42,9,9,0,0,1-3.35-7.48c0-.23,0-.46,0-.7s.26-.28.44-.33S143.31,78.31,143.62,78.26Z"/><path class="cls-23" d="M150.92,82.92a2.93,2.93,0,0,1,.46-.47l6.18-3.85c.15-.1.29-.23.44-.34.47.13,1,0,1.39.49a12.27,12.27,0,0,1-.24,3.31,9.16,9.16,0,0,1-3.72,5.29.46.46,0,0,1-.16-.07Z"/><path class="cls-9" d="M100.8,112.45H90.54a8.4,8.4,0,0,1-.05-1.58c0-.52,0-1,0-1.57l.12-.24a1.14,1.14,0,0,1,1.13-.65h7.79a1.15,1.15,0,0,1,1.29,1.27C100.83,110.61,100.81,111.53,100.8,112.45Z"/><path class="cls-15" d="M213.16,119.89H194.24c0-.63,0-1.26,0-1.88h18.93Z"/><path class="cls-22" d="M82.31,101.1c0-1,0-2.1,0-3.15a1.2,1.2,0,0,1,1.16-1.25c.15,0,.3,0,.44,0,1.7,0,3.41,0,5.11,0,1,0,1.49.45,1.48,1.5s0,1.93,0,2.9Z"/><path class="cls-14" d="M127.72,101.35l-1-1.16c0-1.58-.11-3.16-.09-4.75a1.69,1.69,0,0,1,1.08-1.67,23.58,23.58,0,0,1,3.41,1.88,3.2,3.2,0,0,1,0,5.08,3.63,3.63,0,0,1-2.05.83A5.74,5.74,0,0,1,127.72,101.35Z"/><path class="cls-14" d="M174.15,99.47a2.88,2.88,0,0,1-.92,1.64.52.52,0,0,0-.08.23c-.17,0-.33.06-.49.11a3.5,3.5,0,0,1-4.24-2.58,2.8,2.8,0,0,1,1.34-3.31A19.61,19.61,0,0,1,172,94.29c.36-.2.75-.35,1.12-.52a1.81,1.81,0,0,1,.93,1.71c0,.73,0,1.47,0,2.19S174.11,98.87,174.15,99.47Z"/><path class="cls-17" d="M133.65,29.54H169.5c.29.42.29.42,0,.88H133.68C133.44,30.13,133.32,29.84,133.65,29.54Z"/><path class="cls-17" d="M169.47,27.39H133.69c-.35-.47-.35-.48.08-.88h35.62C169.82,26.91,169.82,26.93,169.47,27.39Z"/><path class="cls-10" d="M72.77,104.74c0-.13.06-.26.1-.39.44-.08.44-.08.45-.7l3.47,0c1.26,0,2.52,0,3.78,0a2,2,0,0,1,1.68.89l.06.37,0,2.15c-.28,0-.57,0-.61.37l-1-.12c0-.34-.25-.39-.53-.38s-.56,0-.61.36L76,107.17c0-.28-.16-.48-.47-.47-.61,0-1.21,0-1.82.08-.41,0-.79,0-1-.43,0,0-.15-.06-.23-.08l0-.25c.39,0,.36-.34.51-.52C73.3,105.14,73.24,105,72.77,104.74Z"/><path class="cls-24" d="M155.61,75.22c-.77.24-1.53.54-2.32.71a10.3,10.3,0,0,1-7.24-.68l-.12,0c.07-1,.15-1.93.23-2.89a1.93,1.93,0,0,1,.41.12,8.94,8.94,0,0,0,3.52,1.17,7.23,7.23,0,0,0,3.54-.5c.46-.17.89-.44,1.34-.65a2.7,2.7,0,0,1,.47-.12C155.5,73.3,155.56,74.26,155.61,75.22Z"/><path class="cls-9" d="M82.26,107l0-2.15h8.15v2.65H82.32l0,0a.06.06,0,0,0,0-.08Z"/><path class="cls-9" d="M82.31,101.1h8.14c0,.84,0,1.68,0,2.52H82.31Z"/><path class="cls-13" d="M221.63,98.33a3.78,3.78,0,0,1,.25-3.83,11.7,11.7,0,0,1,1.17-1.38l1.64-.86c.35-.07.69-.15,1.05-.19a2.74,2.74,0,0,1,1.69.21,2.75,2.75,0,0,1-.23.56A17,17,0,0,1,224,96.65c-.6.51-1.22,1-1.85,1.48A2.58,2.58,0,0,1,221.63,98.33Z"/><path class="cls-13" d="M245.78,91.88c.46.38,1,.72,1.38,1.14a5.43,5.43,0,0,1,.6,1l-.8.1c-1,.14-1.9.34-2.86.4a15.32,15.32,0,0,1-4.86-.4,4.06,4.06,0,0,1,3.56-2.74c.39,0,.79,0,1.19,0Z"/><path class="cls-20" d="M227.2,127.84l1.82.56-3,5c-.42.7-.85,1.4-1.26,2.11a.64.64,0,0,1-.66.37c-.56,0-1.13,0-1.69,0l.51-1,.08-.1h0l3.21-5.32a1.47,1.47,0,0,0,.08-.3Z"/><path class="cls-20" d="M221.63,98.33a2.58,2.58,0,0,0,.51-.2c.63-.48,1.25-1,1.85-1.48a17,17,0,0,0,3.21-3.81,2.75,2.75,0,0,0,.23-.56,2.61,2.61,0,0,1,1.51.72,4.09,4.09,0,0,1,1.23,1.56l-3.31,1.77-1.63.91-2.4,1.18-1,.52Z"/><path class="cls-20" d="M239.24,94.11a15.32,15.32,0,0,0,4.86.4c1-.06,1.9-.26,2.86-.4l.8-.1a3.62,3.62,0,0,1,.43,2.65c0,.22-.11.43-.18.72l-3.64-1.07-1.77-.56-3-1-.63-.23Z"/><path class="cls-2" d="M227.2,127.84c-.31.44-.61.89-.91,1.33L225,130.65a8.18,8.18,0,0,1-.76-.8c-.61-.87-1.19-1.76-1.78-2.65a3.73,3.73,0,0,1-.18-.43,5.06,5.06,0,0,1,1.29,0,14.11,14.11,0,0,0,1.72,0c.52.27,1,.53,1.54.81A2.63,2.63,0,0,1,227.2,127.84Z"/><path class="cls-18" d="M82.31,103.62h8.15v1.26H82.31l-.06-.37Z"/><path class="cls-24" d="M126.25,134.46c3.29.29,6.58.6,9.88.86,1.48.12,3,.16,4.45.24a1.56,1.56,0,0,1-.41.11c-.35,0-.71,0-1.07,0l-12.71,0c-.18,0-.37,0-.55,0C126,135.29,126.11,134.87,126.25,134.46Z"/><path class="cls-13" d="M209.88,112.33H209c.75-2.91,1.49-5.82,2.24-8.72,0-.14.1-.27.15-.41l.78.22a3.39,3.39,0,0,0-.15.41Z"/><path class="cls-13" d="M211.52,112.33h-.88a2.18,2.18,0,0,0,.09-.23c.49-1.91,1-3.81,1.44-5.72.23-.93.43-1.87.65-2.81l.84.17c-.32,1.29-.63,2.6-.95,3.89C212.32,109.21,211.92,110.77,211.52,112.33Z"/><path class="cls-7" d="M205.34,112.33h-.75v-8.43c0-.25,0-.5,0-.75l.73,0Z"/><path class="cls-7" d="M206.85,112.33h-.63c0-3.06,0-6.11,0-9.17h.64l.11.21c0,1.58,0,3.17,0,4.76,0,1.36,0,2.71,0,4.07Z"/><path class="cls-19" d="M242.6,95.75l1.77.56c-.2.66-.41,1.33-.61,2l-1.71-.76C242.24,97,242.42,96.35,242.6,95.75Z"/><path class="cls-19" d="M225.23,97.24l1.63-.91.69,1.32-1.71.8C225.63,98.05,225.43,97.64,225.23,97.24Z"/><path class="cls-23" d="M212,100.7a1.23,1.23,0,0,1,1.67-1.09,1.1,1.1,0,0,1,.57,1.63Z"/><path class="cls-23" d="M204.59,100.61a3.26,3.26,0,0,1,.13-.78,1.25,1.25,0,0,1,1.21-.71,1.35,1.35,0,0,1,1,1.23c0,.09,0,.17,0,.25Z"/><path class="cls-3" d="M225,130.65l1.31-1.48a1.47,1.47,0,0,1-.08.3L223,134.79c.28-.74.52-1.49.86-2.2S224.6,131.29,225,130.65Z"/><path class="cls-19" d="M224.69,92.26l-1.64.86a2.83,2.83,0,0,1-.17-.4.92.92,0,0,1,1.65-.8A1.77,1.77,0,0,1,224.69,92.26Z"/><path class="cls-19" d="M245.78,91.88,244,91.35c0-.13.08-.28.14-.41a.92.92,0,0,1,1-.5.87.87,0,0,1,.71,1A4.21,4.21,0,0,1,245.78,91.88Z"/><path class="cls-25" d="M204.62,101.71v-.61H207v.61Z"/><path class="cls-3" d="M214.17,101.73l-.12.5-2.27-.5.12-.51Z"/><path class="cls-3" d="M213.93,102.61l-.14.63-.61-.14-1.65-.36.14-.63Z"/><path class="cls-19" d="M211.53,102.74l1.65.36.61.14-.13.51-.84-.17-.63-.17-.78-.22Z"/><path class="cls-4" d="M214.17,101.73l-2.27-.51.13-.52,2.24.54Z"/><path class="cls-10" d="M206.85,103.16h-1.5l-.73,0c0-.18,0-.36,0-.54H207v.52A.2.2,0,0,0,206.85,103.16Z"/><path class="cls-25" d="M207,102.61h-2.35v-.49H207Z"/><path class="cls-13" d="M207,101.1h-2.35l0-.49H207Z"/><path class="cls-19" d="M213.93,102.61l-2.26-.5.11-.38,2.27.5Z"/><path class="cls-10" d="M207,102.11h-2.35v-.4H207Z"/><path class="cls-10" d="M73.32,103.65c0,.62,0,.62-.45.7l.18-.73Z"/><path class="cls-22" d="M90.61,109.06l-.12.24,0-.25Z"/><path class="cls-4" d="M206.85,103.16a.2.2,0,0,1,.11,0v.24Z"/><path class="cls-3" d="M223,134.78l-.08.1Z"/><path class="cls-4" d="M206.85,112.33l.11-.13,0,.13Z"/><path class="cls-2" d="M250,104.4l-.12-.15Z"/><path class="cls-2" d="M250.11,104.54l-.12-.14Z"/><path class="cls-23" d="M35.83,51.5l-.37.31-.26.31c-.61-.3-1.21-.62-1.83-.9-.37-.17-.76-.29-1.13-.48A13.29,13.29,0,0,1,35.83,51.5Z"/><path class="cls-8" d="M7.94,63.11l-.05.06s0,0,0,0l0,0Z"/><path class="cls-8" d="M7.94,63.11l0,0s0,0,0,0l0,0Z"/><path class="cls-1" d="M57.17,48.48l.25-.26h0l-.13.38Z"/><path class="cls-8" d="M67.74,43.71h.19v0h-.19Z"/><path class="cls-15" d="M57.17,48.48l.12.12-.12.13h0Z"/><path class="cls-1" d="M57.42,48.22l0,0,0,0Z"/><path class="cls-10" d="M82.32,131l-.06,1.52h-.12l-2.94-.13-1.13,0c-.53,0-1-.08-1.57-.07-.73,0-1.46.06-2.19.11l-2.11.14a10.25,10.25,0,0,0,1.9.22c2.69,0,5.37.1,8.05-.13l.11.14c0,.83,0,1.67,0,2.51-.09.17-.19.33-.29.5l-.94,0H72.62l-.37,0a2.46,2.46,0,0,1-.33-1.38q0-11.7,0-23.4c0-.82,0-1.64,0-2.46l.25-1c.81,0,1.62.13,2.44.14,2.56,0,5.11.07,7.67-.14l0,0v2.15l-.06.63h-.12c-.43,0-.87-.1-1.31-.11-1.42-.06-2.84-.11-4.26-.13-.75,0-1.51.07-2.26.11l-2.11.14a10.27,10.27,0,0,0,1.9.23c2.68,0,5.36.08,8-.12h.12l.06.13c0,.15,0,.29,0,.44v12.63c0,.14,0,.29,0,.43v4.3l-.06,1.13-.11.14-3.7-.15h-.19c-.58,0-1.17-.09-1.75-.09-.73,0-1.46.07-2.19.11l-2.12.14a10.27,10.27,0,0,0,1.9.23c2.68,0,5.37.07,8.05-.13l.11.14ZM79.6,112.38c-.18,0-.28,0-.38,0H75.69c-.54,0-.59.06-.59.64q0,7,0,14c0,.16,0,.32.06.51,1.51,0,3,0,4.44,0Z"/><path class="cls-1" d="M71.91,108.56c0,.82,0,1.64,0,2.46q0,11.7,0,23.4a2.46,2.46,0,0,0,.33,1.38,2.35,2.35,0,0,1-.37,0l-6.52,0a7.66,7.66,0,0,0,.85-2.75c.77-3.22,1.49-6.45,2.24-9.68q1.68-7.36,3.38-14.72A.48.48,0,0,1,71.91,108.56Z"/><path class="cls-2" d="M90.48,135.33l.23.45h-.46Z"/><path class="cls-1" d="M82,135.78c.1-.17.2-.33.29-.5l.25.51Z"/><path class="cls-5" d="M132.63,116c-.08-1.54-.17-3.08-.24-4.62,0-.23,0-.46,0-.69,1.34.57,2.67,1.13,4,1.71l11.32,4.94c.19.09.4.15.59.22a4.39,4.39,0,0,0,.61.07q1.38,0,2.76,0c.27,0,.54,0,.81,0L154,117a2,2,0,0,0,.33.16,43.88,43.88,0,0,0,5.76,1.38,11.05,11.05,0,0,1,1.37.36c-.49.24-1,.49-1.46.71l-4.51,2c-1.18.54-2.35,1.09-3.52,1.65-.34.16-.66.36-1,.54a5.93,5.93,0,0,1-.71-.24c-1.95-.92-3.89-1.89-5.86-2.78-3.48-1.56-7-3.07-10.59-4.32C133.39,116.33,133,116.15,132.63,116Z"/><path class="cls-1" d="M128.21,114.6l.13.09Z"/><path class="cls-1" d="M175.42,47.71a1.34,1.34,0,0,1,1.39,1.43,1.38,1.38,0,0,1-1.41,1.44,1.44,1.44,0,1,1,0-2.87Z"/><path class="cls-1" d="M183.77,50.49a1.26,1.26,0,0,1-1.42-1.35,1.46,1.46,0,0,1,2.92,0A1.36,1.36,0,0,1,183.77,50.49Z"/><path class="cls-1" d="M192.21,50.49a1.25,1.25,0,0,1-1.4-1.38,1.31,1.31,0,0,1,1.41-1.4,1.44,1.44,0,0,1,1.5,1.45A1.36,1.36,0,0,1,192.21,50.49Z"/><path class="cls-12" d="M161.42,118.89a11.05,11.05,0,0,0-1.37-.36,43.88,43.88,0,0,1-5.76-1.38A2,2,0,0,1,154,117c1.09-.5,2.17-1,3.27-1.48l11.08-4.83.3-.11-.18,4.46-.06,1.19L163.76,118Z"/><path class="cls-25" d="M152.47,117.56c-.27,0-.54,0-.81,0q-1.38,0-2.76,0a4.39,4.39,0,0,1-.61-.07q0-11.3,0-22.6c0-.29,0-.59,0-.88l.11,0h3.91l.12,0v18C152.45,113.9,152.46,115.73,152.47,117.56Z"/><path class="cls-24" d="M159.67,65.28a17.17,17.17,0,0,0,.24-3.36c0-.73,0-1.46,0-2.19a1.22,1.22,0,0,1,1.62.78,3.64,3.64,0,0,1,.1,2.52,6.67,6.67,0,0,1-.53,1.34A1.63,1.63,0,0,1,159.67,65.28Z"/><path class="cls-24" d="M141.6,59.7c0,.65,0,1.3,0,1.94,0,.93.15,1.85.22,2.78,0,.27,0,.54,0,.81a1.32,1.32,0,0,1-1.21-.67,4.52,4.52,0,0,1-.65-3.84A1.26,1.26,0,0,1,141.6,59.7Z"/><path class="cls-22" d="M58.65,128.37l.42-1.78,6.45,1.49-.41,1.78Z"/><path class="cls-22" d="M64.57,102.62l.43-1.77,6.44,1.48-.39,1.78Z"/><path class="cls-22" d="M58,131.19c.12-.55.22-1,.34-1.48.07-.27.32-.25.52-.2l1.53.35,3.8.89c.22.05.43.12.68.19l-.42,1.74Z"/><path class="cls-22" d="M63.94,105.45l.39-1.75c2.19.42,4.29,1,6.47,1.46l-.41,1.77Z"/><path class="cls-4" d="M62.88,124.81c1-5.33,2.19-10.6,3.64-15.81Q65.05,117,62.88,124.81Z"/><path class="cls-4" d="M60.32,124.23c1-5.28,2.16-10.52,3.62-15.7C63,113.82,61.77,119.05,60.32,124.23Z"/><path class="cls-4" d="M69.15,109.17c-.17,1-.29,1.94-.51,2.9-1,4.12-1.93,8.23-2.89,12.35a1.55,1.55,0,0,1-.31.68c.08-.45.14-.9.23-1.35,1-4.48,2-9,3.11-13.39.1-.4.25-.79.38-1.19Z"/><path class="cls-25" d="M82.27,107.51c-2.56.21-5.11.16-7.67.14-.82,0-1.63-.09-2.44-.14,0,0,0-.07,0-.09l3.45-.15a2.19,2.19,0,0,0,.34-.1l3.53.09,1.14,0,1,.12.62,0A.06.06,0,0,1,82.27,107.51Z"/><path class="cls-10" d="M76,107.17a2.19,2.19,0,0,1-.34.1l-3.45.15.26-1.15c.08,0,.2,0,.23.08.22.42.6.45,1,.43.61,0,1.21-.06,1.82-.08C75.81,106.69,75.94,106.89,76,107.17Z"/><path class="cls-10" d="M72.77,104.74c.47.25.53.4.22.76-.15.18-.12.57-.51.52Z"/><path class="cls-4" d="M69.16,109.17l0,0,0,0Z"/><path class="cls-23" d="M222.13,119.27a9.65,9.65,0,0,1-1.24-3.34,14.15,14.15,0,0,1-.37-2.8,13.29,13.29,0,0,1,3.25-9.23A12.94,12.94,0,0,1,232,99.69a14.51,14.51,0,0,1,7.06.76,11,11,0,0,1,3.53,2l.51,3-.65.61c.14.18.19.44.5.36a1.25,1.25,0,0,1,.13.4c0,.49-.07,1-.11,1.48a11.48,11.48,0,0,1-1.68,5c-.35.56-.75,1.1-1.12,1.64-.76-.54-1.55-1.06-2.28-1.64a1.51,1.51,0,0,0-1.62-.42A2,2,0,0,0,235.1,111a2.13,2.13,0,0,0,.38-1.48c-.24-1.2-.42-2.4-.63-3.6-.12-.66-.25-1.31-.37-2-.41,1.95-.75,3.89-1.08,5.83a1.11,1.11,0,0,0,.08.54,7.13,7.13,0,0,0,.33.68l-.36.24a1.71,1.71,0,0,0-.75,1.81,1.63,1.63,0,0,0,1.29,1.38,2.05,2.05,0,0,0,1.77-.41.72.72,0,0,1,.14.2,1,1,0,0,0,1,.64c1,.09,1.91.21,2.86.32,0,.09,0,.22-.12.28-.7.63-1.37,1.3-2.11,1.88a13.44,13.44,0,0,1-3.87,2,16,16,0,0,1-4.27.92,20.42,20.42,0,0,1-2.71,0,13.38,13.38,0,0,1-1.66-.28l.73-.63-.36-.43a5.37,5.37,0,0,0-.63.45c-.08.08-.08.24-.12.37a1.53,1.53,0,0,1-.44.12,5.84,5.84,0,0,1-.6-.15l-1.4-.3h0Zm12-17.26h.56l.05-1h-.61Zm-10.55,5.6,1,.45.22-.55-.93-.46Zm12.9-5.3.59.08.26-1-.62-.1Zm-9.68,1.2.65.83.45-.37-.62-.86Zm-3,11.57-.12-.57-1,.17.13.62ZM229,102.14l.46,1,.52-.29-.41-1Zm-5.09,7.61-1-.25-.11.61,1,.21Zm8.38-7.55-.2-1-.62.1.27,1Zm6.94,1.13.5-.92-.57-.31-.45,1Zm2.15.17-.65.83.45.37.7-.8Zm-16.08,1.36-.39.52.85.64.33-.47Zm-1,12-1,.4.24.59,1-.46Zm-.8-4.12v-.57h-1v.57Z"/><path class="cls-26" d="M240.16,114.9c.37-.54.77-1.08,1.12-1.64a11.48,11.48,0,0,0,1.68-5c0-.49.09-1,.11-1.48a1.25,1.25,0,0,0-.13-.4l.67-.55c-.15-.2-.18-.49-.52-.42l-.51-3a9.39,9.39,0,0,1,2.29,2.33,13,13,0,0,1,2.4,6.4,13.87,13.87,0,0,1-1.4,7.94,12.25,12.25,0,0,1-6.32,5.8,14.35,14.35,0,0,1-7.29,1,13,13,0,0,1-8.28-4,7.62,7.62,0,0,1-1.75-2.51l1.4.3a5.84,5.84,0,0,0,.6.15,1.53,1.53,0,0,0,.44-.12l.38.24a13.38,13.38,0,0,0,1.66.28,20.42,20.42,0,0,0,2.71,0,16,16,0,0,0,4.27-.92,13.44,13.44,0,0,0,3.87-2c.74-.58,1.41-1.25,2.11-1.88.07-.06.08-.19.12-.28h.49Zm4.57-1.66,1.08.06v-.64h-1Zm-4.43,8.12.66.87.46-.43-.66-.82Zm4.33-10.52,1-.2-.13-.61-1,.24Zm-7.88,13.26-.26-1.06-.55.15.19,1Zm8.64-8.21.13-.63-1-.23-.12.57ZM227,120.67l-.69.82.49.39.65-.81Zm17.93-12.54-.32-.57-1,.48.3.5Zm-2.49,11.16-.37.47.81.7.38-.51ZM229,122l-.5,1,.6.21.42-.91Zm5.15,1.28-.56,0-.08,1h.64Zm4.11-.78.41,1,.58-.28-.48-.94Zm-6.7,1.57.22-1.09-.57-.07-.24,1Zm12.86-5.78.28-.57-.94-.44-.27.5Z"/><path class="cls-26" d="M222.13,119.27l.11.14Z"/><path class="cls-1" d="M152.33,94h-3.91c.47-.53,1-1.05,1.41-1.59a4.28,4.28,0,0,0,.37-.57h.22a10.46,10.46,0,0,0,.65.84C151.48,93.14,151.91,93.57,152.33,94Z"/><path class="cls-7" d="M92.25,122.29c-.25-1.86,1.59-3.41,3.4-3.41a3.44,3.44,0,0,1,3.45,3.54,3.52,3.52,0,0,1-3.49,3.3A3.3,3.3,0,0,1,92.25,122.29Z"/><path class="cls-7" d="M82.32,128.36v-1.15h8.11v1.12c-.66,0-1.33,0-2,0s-1.39,0-2.08,0h-4Z"/><path class="cls-13" d="M82.15,129.63l.11-.14v.38l-.11-.14Z"/><path class="cls-22" d="M82.32,124.06c0-.14,0-.29,0-.43V111c0-.15,0-.29,0-.44.18,0,.34,0,.34.27v13C82.66,124,82.5,124.06,82.32,124.06Z"/><path class="cls-22" d="M82.32,109.68v-1.52c.18,0,.33,0,.34.27v1C82.65,109.64,82.5,109.67,82.32,109.68Z"/><path class="cls-13" d="M82.26,110.43h-.12a.24.24,0,0,0,0-.12h.12Z"/><path class="cls-3" d="M205.35,103.17h.86c0,3.06,0,6.11,0,9.17h-.88C205.34,109.27,205.35,106.22,205.35,103.17Z"/><path class="cls-25" d="M212.19,103.41l.63.17c-.22.94-.42,1.88-.65,2.81-.47,1.91-.95,3.81-1.44,5.72a2.18,2.18,0,0,1-.09.23h-.76l2.16-8.51A3.39,3.39,0,0,1,212.19,103.41Z"/><path class="cls-17" d="M222.17,51.13a2.9,2.9,0,1,1,0-5.79,2.9,2.9,0,1,1,0,5.79Z"/><path class="cls-13" d="M82.14,132.52h.12v.25l-.11-.14A.45.45,0,0,0,82.14,132.52Z"/><path class="cls-10" d="M80.64,107.28l-1.14,0c0-.39.34-.36.61-.36S80.62,106.94,80.64,107.28Z"/><path class="cls-10" d="M82.27,107.43l-.62,0c0-.41.33-.37.61-.37Z"/><path class="cls-25" d="M79.6,112.38v15.05c-1.47.09-2.93,0-4.44,0,0-.19-.06-.35-.06-.51q0-7,0-14c0-.58.05-.63.59-.64h3.53C79.32,112.34,79.42,112.36,79.6,112.38Z"/><path class="cls-25" d="M82.14,110.31a.24.24,0,0,1,0,.12c-2.68.2-5.36.14-8,.12a10.27,10.27,0,0,1-1.9-.23l2.11-.14c.75,0,1.51-.11,2.26-.11,1.42,0,2.84.07,4.26.13C81.27,110.21,81.71,110.27,82.14,110.31Z"/><path class="cls-25" d="M82.15,129.63v.1c-2.68.2-5.37.15-8.05.13a10.27,10.27,0,0,1-1.9-.23l2.12-.14c.73,0,1.46-.1,2.19-.11.58,0,1.17.06,1.75.09h.19Z"/><path class="cls-25" d="M82.14,132.52a.45.45,0,0,1,0,.11c-2.68.23-5.36.14-8.05.13a10.25,10.25,0,0,1-1.9-.22l2.11-.14c.73-.05,1.46-.1,2.19-.11.52,0,1,0,1.57.07l1.13,0Z"/><path class="cls-3" d="M235.76,114a2.05,2.05,0,0,1-1.77.41A1.63,1.63,0,0,1,232.7,113a1.71,1.71,0,0,1,.75-1.81l.36-.24h1.29a2,2,0,0,1,1.16,1.89Z"/><path class="cls-19" d="M235.1,111h-1.29a7.13,7.13,0,0,1-.33-.68,1.11,1.11,0,0,1-.08-.54c.33-1.94.67-3.88,1.08-5.83.12.66.25,1.31.37,2,.21,1.2.39,2.4.63,3.6A2.13,2.13,0,0,1,235.1,111Z"/><path class="cls-19" d="M235.76,114l.5-1.13a1.51,1.51,0,0,1,1.62.42c.73.58,1.52,1.1,2.28,1.64l.12.23h-.49c-.95-.11-1.9-.23-2.86-.32a1,1,0,0,1-1-.64A.72.72,0,0,0,235.76,114Z"/><path class="cls-4" d="M234.1,102v-1h.61l-.05,1Z"/><path class="cls-4" d="M223.55,107.61l.27-.56.93.46-.22.55Z"/><path class="cls-4" d="M236.45,102.31l.23-1,.62.1-.26,1Z"/><path class="cls-4" d="M226.77,103.51l.48-.4.62.86-.45.37Z"/><path class="cls-4" d="M223.78,115.08l-1,.22-.13-.62,1-.17Z"/><path class="cls-4" d="M229,102.14l.57-.26.41,1-.52.29Z"/><path class="cls-4" d="M225.05,120l-.38-.24c0-.13,0-.29.12-.37a5.37,5.37,0,0,1,.63-.45l.36.43Z"/><path class="cls-4" d="M223.91,109.75l-.16.57-1-.21.11-.61Z"/><path class="cls-4" d="M232.29,102.2l-.55.15-.27-1,.62-.1Z"/><path class="cls-4" d="M239.23,103.33l-.52-.28.45-1,.57.31Z"/><path class="cls-4" d="M241.38,103.5l.5.4-.7.8-.45-.37Z"/><path class="cls-4" d="M225.3,104.86l.79.69-.33.47-.85-.64Z"/><path class="cls-4" d="M224.3,116.81l.23.53-1,.46-.24-.59Z"/><path class="cls-4" d="M243.09,105.42c.34-.07.37.22.52.42l-.67.55c-.31.08-.36-.18-.5-.36Z"/><path class="cls-4" d="M223.5,112.69h-1v-.57h1Z"/><path class="cls-4" d="M244.73,113.24l.05-.58h1v.64Z"/><path class="cls-4" d="M240.3,121.36l.46-.38.66.82-.46.43Z"/><path class="cls-4" d="M244.63,110.84l-.14-.57,1-.24.13.61Z"/><path class="cls-4" d="M236.75,124.1l-.62.11-.19-1,.55-.15Z"/><path class="cls-4" d="M245.39,115.89l-1-.29.12-.57,1,.23Z"/><path class="cls-4" d="M227,120.67l.45.4-.65.81-.49-.39Z"/><path class="cls-4" d="M244.94,108.13l-1,.41-.3-.5,1-.48Z"/><path class="cls-4" d="M242.45,119.29l.82.66-.38.51-.81-.7Z"/><path class="cls-4" d="M229,122l.52.28-.42.91-.6-.21Z"/><path class="cls-4" d="M234.12,123.3v1h-.64l.08-1Z"/><path class="cls-4" d="M238.23,122.52l.51-.25.48.94-.58.28Z"/><path class="cls-4" d="M231.53,124.09l-.59-.18.24-1,.57.07Z"/><path class="cls-4" d="M244.39,118.31l-.93-.51.27-.5.94.44Z"/></g></g></g></svg>