<svg xmlns="http://www.w3.org/2000/svg" viewBox="0 0 596.9 313.09"><defs><style>.cls-1{fill:#dbebfb;}.cls-2{fill:#dbeafa;}.cls-3{fill:#334e8f;}.cls-4{fill:#172f5f;}.cls-5{fill:#263560;}.cls-6{fill:#36508a;}.cls-7{fill:#5c627a;}.cls-8{fill:#cde2fb;}.cls-9{fill:#4491f0;}.cls-10{fill:#fdfefd;}.cls-11{fill:#f1d1c6;}.cls-12{fill:#fbfdfd;}.cls-13{fill:#f8cb69;}.cls-14{fill:#5c465f;}.cls-15{fill:#4891eb;}.cls-16{fill:#263365;}.cls-17{fill:#fafbfc;}.cls-18{fill:#e5a4a3;}.cls-19{fill:#f1cc72;}.cls-20{fill:#2e457b;}.cls-21{fill:#f0f5f8;}.cls-22{fill:#bba1a6;}.cls-23{fill:#1b3671;}.cls-24{fill:#dfc994;}.cls-25{fill:#d4ddea;}.cls-26{fill:#3f7fd7;}.cls-27{fill:#ef9441;}.cls-28{fill:#bdc2cf;}</style></defs><g id="Layer_2" data-name="Layer 2"><g id="Layer_1-2" data-name="Layer 1"><g id="Log_in_Page" data-name="Log in Page"><path class="cls-1" d="M281.14,16.74c1.36-.36,2.76-.61,4.08-1.09,4-1.48,8-3.22,12.08-4.56C304,8.91,310.65,6.61,317.47,5c15.86-3.78,32.1-3.73,48.28-4.68,15-.88,29.64.2,44.42,2.21,18.6,2.52,36.08,8.53,52.89,16.38a140.91,140.91,0,0,1,24.49,15.19c9.12,6.84,18.17,14,26,22.3,9.75,10.3,19,21.12,26.54,33.37,7.34,11.94,14.33,24,20,36.85,7.08,16.07,13.53,32.39,17.72,49.49,3.7,15.12,7.5,30.24,10.54,45.5,1.6,8.07,1.19,16.53,2.52,24.67,3.09,18.85,1.83,37.8,2.06,56.72,0,2.9-.47,5.82-.73,8.73-11.42-.05-22.84-.07-34.27-.18a11.09,11.09,0,0,1-3.1-1l2.85-1.41,1.5-1,2.21-1.81,2-2.08,1.1-1.5c.35-.5.71-1,1.06-1.51l.13-.21.31-.56.92-2.06,1.26-3.56c.13-.52.25-1.05.38-1.57l.24-1.42v-4.61c-.08-.47-.16-.95-.25-1.42l-.93-3.5-.78-2.35-1.51-5.26c.32-.89.63-1.77.94-2.66,2.23-.26,2.36-1.44,1.76-3.36-2.45-7.82-4.77-15.68-7.13-23.52q-9.37-31.06-18.76-62.12c-3.24-10.69-7.38-20.66-19.8-23.69L516.43,146c.11-1.74.22-3.48.32-5.23s.17-3.35.25-5q0-8.07,0-16.15c-.09-.7-.17-1.39-.26-2.08.09-5.61-2.08-9.69-7.22-11-13-3.27-26-4.86-36,7.22-.14-1.7-.2-3.41-.48-5.09-.17-1-.5-2.73-1.07-2.87-2.88-.7-5.9-1.5-8.8-1.28-2.69.2-3.14,2.81-3.4,5.32-.54,5.26-7.6,8.49-12,5.52-6.29-4.24-6.5-2.69-11.35,2.5-.61.66-.39,2.9.28,3.77,2.89,3.78,2.23,7.53.79,11.57-1,2.91-2.52,4.44-5.86,4.11-2-.19-3.84.55-4.15,3.15-.62,5.35.24,8.81,3.19,9.05,5.54.46,6.79,4.46,7.88,8.5a8.83,8.83,0,0,1-.67,5.76c-1.87,3.72-1.5,5.27,2.07,9.19,2.77,3.05,4.58,1.09,6.81-.48a8.51,8.51,0,0,1,13.16,4.95c1,4.09,2.71,5.24,7,5.45,4.05.19,5.25-2.33,6.08-5.5.23-.89.37-2.3.94-2.54,4.16-1.74,7.94-5.67,13.08-2,3.14,2.21,6,.85,8.39-1.73a14.79,14.79,0,0,1,1.91-1.49c.21.48.43,1,.64,1.43l-.82,1.46a11.62,11.62,0,0,0-2,2.77c-1,2.95-1.49,6.09-2.63,9-3.13,8-6.71,15.78-9.63,23.83-1.16,3.2-4,6.19-2.44,10.1v0l-.72.6-13.19,6.87c-4.18-.25-8.43-.13-12.53-.83-5.23-.91-10.35-2.48-15.51-3.76a32,32,0,0,0-.05-4.7,54.29,54.29,0,0,0-1.43-5.54c0-.24,0-.49,0-.73,3.77.22,7.7.33,9.29-3.95.73-2,.35-4.38.28-6.59-.4-13-1.6-10.76-10.79-10.74-3.23,0-4.55-1.49-5.41-4.3s-2.17-5.62-3.29-8.43-1.95-5.81.33-8.63c.92-1.13,1.61-2.44,2.48-3.61,3.06-4.15,2.6-7.27-1.48-10.3a33.49,33.49,0,0,1-3.33-2.86c-4.1-4-6.11-4.23-10.86-.89-1.18.84-2.06,2.26-3.34,2.81-1.66.71-3.77,1.48-5.35,1-3.57-1-6.88-2.94-10.41-4.16-3.08-1.06-4.64-2.72-4.5-6.15a24.93,24.93,0,0,0-.85-6.85c-.56-2.32-2-3.81-4.74-3.65-2.93.16-5.88,0-8.82,0-6.08,0-5.89,0-6.19,5.9a30.83,30.83,0,0,1-1.9,8.12c-.31.9-1.59,1.68-2.6,2.11-3.68,1.56-7.4,3.08-11.19,4.34a6.27,6.27,0,0,1-4.33,0c-2.59-1.29-4.83-3.27-7.36-4.71-1.07-.62-2.7-1.16-3.73-.78-5.15,1.86-8.58,5.87-11.48,10.29-.46.7-.09,2.41.48,3.26,1.8,2.67,4.09,5,5.74,7.77.7,1.16.45,3,.27,4.51-.13,1-1,1.89-1.35,2.89-2.39,6.55-3.54,14.45-13.75,12.26-.42-.09-.93.42-1.39.41-2.57-.08-3.62,1.69-3.69,3.69-.16,4.5,0,9,.15,13.53.08,3,1.84,3.74,4.64,3.66a34.45,34.45,0,0,1,8,.83,4.72,4.72,0,0,1,3,2.27c1.9,4.42,3.36,9,5.26,13.45a3.55,3.55,0,0,1-.77,4.52,52.3,52.3,0,0,0-5.63,7.14c-.57.88-.71,2.91-.12,3.53,3.91,4.12,8.06,8,12.72,12.52,2.39-2.72,4.18-4.9,6.13-6.92,2.55-2.64,5.54-2.78,8.72-1.16a25.07,25.07,0,0,0,3,1.3c9.95,3.46,10.95,4.63,11.29,15.09.12,3.66,2.67,3.85,5,3.89,3.64.07,7.28-.57,10.93-.59,2.75,0,3.68-1.52,4-3.82.31-2.65.56-5.32.75-8s1.64-3.94,4.33-4.51a30.84,30.84,0,0,0,8.52-2.94c4.76-2.63,7.48-2.41,11.13,1.82.95,1.1,1.72,2.36,2.58,3.54-3.05.69-6.15,1.2-9.11,2.13-2.69.84-5.58,1.7-7.76,3.36-2.83,2.15-5,5.11-7.51,7.72l-4,2.25c3.54,2.5,5.15,2.11,6.37-.08l2.19-.94,2.81-2,.85-.79,2.06-.84,5.36-.29c2.07.11,4.09.29,3.92,3.18l-.48,1.89-.24.06-.06.24a1.12,1.12,0,0,0-.34.38l-2.12,1.24-1.6.23-1.89,1.9c-.05,3.9,2.6,1.83,4.27,1.94l4.42-1.79,2.17-.29c.65-.66,1.3-1.33,2-2l6.14-7,1.59.35c-4.13,13.27,1.18,25.15,15.07,29.41,7.09,2.16,13.88,5.28,20.81,8,1.16,2.84-1.26,3-2.83,3.8-.82.43-1.57,1-2.35,1.51l-1.32.81-3.87,4.24a1.06,1.06,0,0,0,0,.61l-52.86-.21c0-1.08,0-2.16,0-3.24q4-7.29,8-14.59c1.47-2.65.51-3.84-2.33-3.91-.54-.82-.91-2.1-1.65-2.38-5.37-2-10.56-4.8-16.64-4.07-.89.1-1.87-.84-2.84-1.2-1.34-.52-2.78-1.47-4.05-1.31A66.35,66.35,0,0,0,368,282.76c-3.33,1-6.23,3-7.34,6.71-3.69.34-4.76,1.67-3.33,4.41,2.47,4.73,5.07,9.39,7.61,14.08-.25,1.05-.51,2.1-.77,3.15-.85.07-1.7.21-2.55.21q-46.32,0-92.63,0c-.85,0-1.7-.14-2.55-.21l-2.2-3.93c1.11-7.92,2.19-15.84,3.35-23.76,1.29-8.75,2.65-17.5,4-26.25l1.41-2.25.05-7.32c.47-.55,1.13-1,1.31-1.69.08-.28-.85-.83-1.32-1.26l-22.05,0,2.94-11,8.06,3,3.71,2.15c3.66-.11,7.46.39,10.95-.44,11-2.62,18.56-10,24.51-19.28,1.36-2.11.16-3.48-1.84-3.63-7.62-.59-15.22-1.69-22.84.67a49.11,49.11,0,0,0-20.35,11.69c.23-1.73.46-3.45.7-5.17.47-2.61,2.07-5.67,1.21-7.72-2.65-6.38-1.77-12.86-1.91-19.34,0-1.64,0-3.28,0-5.17,9.19,4.15,7.9,3.7,8.78,7,4-4.09,5-15.45,1.75-21.06-4.25-7.38-15.84-15.32-20.53-14.05-1,7.6,1.78,17.28,7,23.12,2,2.19,1.43,3.21-.58,5-4,3.47-7.84,5.33-12.47,1.19-.49-.43-1.63-.18-2-.63-.66-.75-1.51-1.93-1.33-2.72.77-3.3,2.29-6.46,2.76-9.78.5-3.49.11-7.11.11-10.73-7,1.28-12.91,10.9-12.89,20.41-2.79.9-2.79,1.51,0,4.45l.75,2.92c-.74,1.48,3.59,3,0,4.44a39.25,39.25,0,0,0-31.23.61c3.6,3.69,7.83,4.9,12.11,6l2.23.72,6.6.75c2.05,2.1,7.54,2.1,9.6,0h6.59c.74,2.45,1.49,4.9,2.23,7.35l.72,2.19a30.78,30.78,0,0,1,1.31,3.62c.4,1.65.32,3.16-2.05,3-11.46-3.65-22.92-6-35-.49l3.41,3.94c-1.83.08-3.65.24-5.48.24q-28.28,0-56.56,0c-4.3,0-5.35,1-5.31,5.42,0,4.13.27,8.26.42,12.39-4.2.2-8.4.29-12.58.68-.78.07-1.45,1.35-2.18,2.08l.66,14.84,14.85.83.87.41.11,1-.43.5c-3.21,1.14-2.73,4.15-2.67,6.4.13,5.2.87,10.38,1.37,15.57l-7.48.65c-.72,1.24-2,2.46-2.06,3.73-.24,5-.16,10,0,15a10.46,10.46,0,0,0,1,3c-.44.37-.85,1-1.32,1.06-3,.27-5.24.29-6.78-3.76-5.76-15.16-17.94-22-33.55-23.82l-.5-2.37a20.1,20.1,0,0,0,.85-2.4c3.2-14.41,6.43-28.81,9.57-43.24,2.23-10.27,4.32-20.57,6.48-30.85l.1-1.16v-2.09q1.77-7.94,3.56-15.87l.19-1.27.75-1.33,2.94-12.87.28-1.53.24-1.39,3.09-15.95a6.41,6.41,0,0,0,1.11-1.78c1.91-8.86,3.77-17.73,5.64-26.59,2.8-.74,5.87-1,8.33-2.31,5.61-3.06,6.25-8.47,5.59-14.21,15.69-.06,31.37,0,47.05-.25a52.4,52.4,0,0,0,21.06-5c7.31-3.32,12.64-8.74,17.33-14.89,5.49-7.23,10.57-14.77,16-22.06,2.66-3.57,5.68-6.86,8.53-10.28l.66,3.78.15,1.43c.09.76.17,1.53.26,2.29.16.94.33,1.89.49,2.83q3.23,8.49,6.46,17l.51,2.1,3.8,5.67a.26.26,0,0,0,.2.31c1.35,1.85,2.76,3.65,4,5.56s2.31,1.8,4.1.54c4.25-3,8.71-5.67,13.08-8.47,8.29,6.4,23.58,6.54,32-1.87,6.56-6.56,8.63-18.18,6.08-23.57L331,51.89l-4.59-6.62-1.83-2.89-2.6-4.2-.15-.27C311.41,24.78,299.09,15.35,281.14,16.74ZM297.3,150.51h-5.16c-2.12-4.14-1.9-9.57-6.59-12.45-4.47,5.88-4.17,12.43-3.5,18.8.59,5.59,3.61,8.14,9,9.14,6.52,1.21,14-2.33,16.77-8.22.29-.61-.7-2.65-1.09-2.65-4.11,0-8.21.33-12.32.56l-.5-1.24,6.37-2.47c7.68,2.8,14.83-3.43,17.37-9.93.66-1.7.26-3.53-2.07-3.07-3.41.67-7,1.26-10,2.92C302.09,143.84,298.08,145.78,297.3,150.51ZM416.85,51.12c-10.12.46-20.76,3.1-29.55,10.65a17,17,0,0,0-4.58,7.44c-2.21,6.75.46,12.36,5.22,17.13,10.18,10.17,22.9,12.89,36.45,10.89,7.13-1.06,13.41-1,19.47,3a8.37,8.37,0,0,0,2.31,1.12c2.09.57,4.23,1,6.35,1.52a61.19,61.19,0,0,0-.4-6.65c-.87-5.31-2.59-10.47,1.6-15.48a10,10,0,0,0,2.09-7.52c-1.38-6.14-4.42-11.34-10.24-14.89C437,53.11,427.82,51.35,416.85,51.12ZM217,170.08l-1,.19c-1.62-2.64-3.32-5.24-4.8-8a3.3,3.3,0,0,1-.17-2.67c1.37-2.56,3.07-4.93,4.5-7.45,2.84-5,1.76-13.1-2.48-17.82a37.72,37.72,0,0,0-6.27,16.56,29.85,29.85,0,0,1-1.52,4.71c1.25,2.16,2.79,4.85,4.5,7.82a5.63,5.63,0,0,1-1.08,0c-.4-.28-.77-.59-1.18-.86-6-4-12.3-7-19.8-6.22-2.93.29-3.44,1.16-2,3.64,4.15,6.95,10.69,9.89,18.22,8.62,6.27-1.06,10.7-.85,12.86,6,.2.63,2.55,1.3,3.38.89,7.34-3.64,12.31-15.25,10-22.9-.54-1.74-1.86-3.25-3.34-1.32a126.3,126.3,0,0,0-8.68,12.93C217.24,165.87,217.36,168.12,217,170.08Zm58.77,43.06.33-.75a27.66,27.66,0,0,0,4-.39c8.59-2.09,14-8.2,18.83-15,1-1.43,1.08-2.9-1.26-3a121.3,121.3,0,0,0-13.46-.57c-8.83.47-15.47,5.77-22,11-.53.43-.29,3.14.23,3.38C266.77,209.71,271.29,211.37,275.76,213.14Zm-4.85-29.64c5,1.65,9.48,4.4,13.78,4.21,8.47-.38,14.76-5.53,19.31-12.65,1.1-1.72.6-2.81-1.32-3.16a32.74,32.74,0,0,0-20.94,2.64c-1.83.91-3.45,3.37-5.1,3.3C272.75,177.68,272.85,180.61,270.91,183.5Zm5.21-8.3c3.59-3.45,3.59-3.45,3.55-12.1,0-5.06-5.55-13.21-10.2-15.09-1.93-.78-2.9-.48-3.08,1.89C265.66,159.89,267.8,168.73,276.12,175.2Zm-52,10.84c-1.57-3.68-3.34-7.11-8.78-8.59-6.24-1.7-12-2.58-18.1-.29a12.3,12.3,0,0,0-2.77,2.09c.75.86,1.35,2.16,2.29,2.5,4.74,1.74,9.53,3.37,14.38,4.73a21.58,21.58,0,0,0,6.43.44A63.33,63.33,0,0,0,224.14,186ZM202,126.47l-1.24-.44c-1.2,2.62-2.71,5.14-3.51,7.87a70,70,0,0,0-1.46,9c-7.38-2.76-15-1.89-17.52,2.21,5.46,4.07,11.68,5.26,18.25,4.48,2.5-.3,4.66-1.66,3.37-5.11a4.09,4.09,0,0,1,.76-3.33C204.39,136.4,203.28,131.46,202,126.47ZM177.93,121c2.31,5.72,6.24,9.25,11.26,12C191.07,126.61,184.58,119.55,177.93,121Z"/><path class="cls-2" d="M29.63,311.66c-1.4-2.75-2.39-5.82-4.27-8.2C14,289.13,6.94,272.75,2.79,255.23c-3.2-13.57-3.34-27.52-2-41.48,2.06-20.83,9.7-39.57,20.63-57.08,8.47-13.57,19-25.35,32.66-34a101.94,101.94,0,0,1,40-14.81c5.52-.8,11.14-.93,16.71-1.37-.66,4.78-.16,9.22,3.33,13,.62.67.48,2,.7,3.06-.3.93-.67,1.83-.88,2.77q-5.65,26-11.3,52c-7.5,34.27-15.07,68.54-22.47,102.84-.56,2.58-1.61,3.25-4,3.54-6.86.82-13.41,2.71-19,7l-.49.47-6.94,6.82-6,12.61Z"/><path class="cls-3" d="M568.49,293.24c-.13.52-.25,1.05-.38,1.57l-1.26,3.56-.92,2.06a.53.53,0,0,0-.31.56l-.13.21c-.35.51-.7,1-1.06,1.51l-1.1,1.5-2,2.08-2.21,1.81-1.5,1-2.85,1.41-3.69,2-24.28-.19a25.06,25.06,0,0,0-4.14-.76c-10.5-.13-21-.17-31.49-.25-.45-.39-.83-1-1.35-1.15-7.53-2.75-15.07-5.45-22.61-8.16l-5.15-1.66c-6.93-2.68-13.72-5.8-20.81-8-13.89-4.26-19.2-16.14-15.07-29.41l5.68-8.81h0l3.31-2.67h.24l.19-.14a29.88,29.88,0,0,1,20-.38c2.53.78,5.19,1.14,7.79,1.69,3.52,1,7.32,1.41,10.49,3.05,7.14,3.68,14.19,7.07,22.55,5.27-.56,3.9,1.53,5.24,5.06,5.78,4.76.73,9.44,1.91,14.16,2.89l-5.26.93c.66.75,1,1.57,1.62,1.8,6,2.31,11.89,4.69,17.95,6.7,5.15,1.71,10.54,2.67,15.64,4.47,7.34,2.58,14.75,4.19,22.55,3.56l.26,0h.26v4.61Z"/><path class="cls-3" d="M245.55,57.84c-.22-1.27-.44-2.53-.65-3.8l.6-1.48c.37-2.22.73-4.35,1.1-6.56l-.09-1.69c1.52-3.46,2.79-6.37,4.31-9.84l16-13.26,1.49-.87,1-.36,2.05-.95.91-.29,1.85-.67,1.81-.45,3.4-.95.17,0c18.85-2.11,31.59,7.53,42.3,21.1a22,22,0,0,0-4.34,1.68c-8.68,5.67-17.29,11.44-25.91,17.2-9,6-18,12.16-27.08,18.1-3.72,2.44-7.69,4.49-11.55,6.72L247,65.86c-.29-1.19-.76-3.1-1-4.29l-.27-2.3Z"/><path class="cls-4" d="M56.64,291.24l.49-.47c.7.14,1.57.62,2.06.36a61,61,0,0,1,20.18-6.23c1-.13,2-1.65,2.49-2.75A56.43,56.43,0,0,0,84,276.26l.86,0,1.44,5.12.5,2.37c15.61,1.86,27.79,8.66,33.55,23.82,1.54,4.05,3.73,4,6.78,3.76.47,0,.88-.69,1.31-1.06l1.23,1.27,0,1.09-6,.17-29.44-.06-49.9-.37-.59-1.74,6-12.61C53.43,299.35,56.85,296,56.64,291.24Z"/><path class="cls-5" d="M251,34.55l-4.44,9.91c-.78.36-1.57.68-2.32,1.09Q209.41,64.29,174.57,83q-19.83,10.65-39.72,21.2l-7.42-4.62a18.13,18.13,0,0,0,4.11-1.09Q165.29,80.43,199,62.25q25.48-13.72,51-27.42A4.51,4.51,0,0,1,251,34.55Z"/><path class="cls-4" d="M129.66,312.67c0-.36,0-.72,0-1.09l11.8-.16,7.28,0h58.83l15.59.05,6.58-.33,33.69-.08,3,0c.85.08,1.7.22,2.55.22q46.32,0,92.63,0c.85,0,1.7-.14,2.55-.21H368l28.54,0,2.31,0,52.86.21,37.55.29-.05.89-.66.47-1.48,0,.13-.14-.09-.16a26.78,26.78,0,0,0-3.55-.48c-7.59,0-15.19,0-22.79,0-2,0-4.08.33-6.11.51-31.37.09-62.75.28-94.12.28q-95.77,0-191.54-.18c-1.35,0-2.7.06-4,.09Z"/><path class="cls-6" d="M127.43,99.6l7.42,4.62c.05.79.09,1.57.13,2.36.66,5.74,0,11.15-5.59,14.21-2.46,1.35-5.53,1.57-8.33,2.31l-5-2.71-1.2,2.2c-.22-1-.08-2.39-.7-3.06-3.49-3.78-4-8.22-3.33-13,2.64-5.67,6.91-8.71,13.32-8.08A14.47,14.47,0,0,1,127.43,99.6Zm-4.91,17.1c4.44.08,6.77-1.86,6.89-5.73a6.49,6.49,0,0,0-6.18-6.8c-4.11-.15-6.68,2.22-6.85,6.31A5.9,5.9,0,0,0,122.52,116.7Z"/><path class="cls-4" d="M551.11,312.58l3.69-2a11.09,11.09,0,0,0,3.1,1c11.43.11,22.85.13,34.27.18a1.46,1.46,0,0,0,.51,0l-.09,1.08q-19,.07-37.92.14A35.77,35.77,0,0,1,551.11,312.58Z"/><path class="cls-4" d="M489.19,312.56c0-.29,0-.59.05-.89l2-.29c10.5.08,21,.12,31.49.25a25.06,25.06,0,0,1,4.14.76l-11.09.54-23.55.13Z"/><path class="cls-4" d="M28.42,312.71H6.64l0-1H28.33Z"/><path class="cls-4" d="M28.42,312.71l-.09-1,1.3-.08,14.06-1,.59,1.74Z"/><path class="cls-7" d="M454.64,312.81c2-.18,4.07-.49,6.11-.51,7.6-.07,15.2-.06,22.79,0a26.78,26.78,0,0,1,3.55.48Z"/><path class="cls-4" d="M592.59,312.8l.09-1.08h4.16l.06,1.08Z"/><path class="cls-8" d="M417.25,252.13c-.86-1.18-1.63-2.44-2.58-3.54-3.65-4.23-6.37-4.45-11.13-1.82a30.84,30.84,0,0,1-8.52,2.94c-2.69.57-4.13,1.76-4.33,4.51s-.44,5.34-.75,8c-.28,2.3-1.21,3.8-4,3.82-3.65,0-7.29.66-10.93.59-2.33,0-4.88-.23-5-3.89-.34-10.46-1.34-11.63-11.29-15.09a25.07,25.07,0,0,1-3-1.3c-3.18-1.62-6.17-1.48-8.72,1.16-1.95,2-3.74,4.2-6.13,6.92-4.66-4.53-8.81-8.4-12.72-12.52-.59-.62-.45-2.65.12-3.53a52.3,52.3,0,0,1,5.63-7.14,3.55,3.55,0,0,0,.77-4.52c-1.9-4.42-3.36-9-5.26-13.45a4.72,4.72,0,0,0-3-2.27,34.45,34.45,0,0,0-8-.83c-2.8.08-4.56-.63-4.64-3.66-.11-4.51-.31-9-.15-13.53.07-2,1.12-3.77,3.69-3.69.46,0,1-.5,1.39-.41,10.21,2.19,11.36-5.71,13.75-12.26.37-1,1.22-1.89,1.35-2.89.18-1.49.43-3.35-.27-4.51-1.65-2.75-3.94-5.1-5.74-7.77-.57-.85-.94-2.56-.48-3.26,2.9-4.42,6.33-8.43,11.48-10.29,1-.38,2.66.16,3.73.78,2.53,1.44,4.77,3.42,7.36,4.71a6.27,6.27,0,0,0,4.33,0c3.79-1.26,7.51-2.78,11.19-4.34,1-.43,2.29-1.21,2.6-2.11a30.83,30.83,0,0,0,1.9-8.12c.3-5.88.11-5.89,6.19-5.9,2.94,0,5.89.13,8.82,0,2.76-.16,4.18,1.33,4.74,3.65a24.93,24.93,0,0,1,.85,6.85c-.14,3.43,1.42,5.09,4.5,6.15,3.53,1.22,6.84,3.14,10.41,4.16,1.58.45,3.69-.32,5.35-1,1.28-.55,2.16-2,3.34-2.81,4.75-3.34,6.76-3.13,10.86.89a33.49,33.49,0,0,0,3.33,2.86c4.08,3,4.54,6.15,1.48,10.3-.87,1.17-1.56,2.48-2.48,3.61-2.28,2.82-1.49,5.7-.33,8.63s2.4,5.56,3.29,8.43,2.18,4.31,5.41,4.3c9.19,0,10.39-2.24,10.79,10.74.07,2.21.45,4.63-.28,6.59-1.59,4.28-5.52,4.17-9.29,3.95-3.36-3-6.83-5.91-10.06-9q-17.51-17-34.88-34.09c-1.12-1.1-2.25-2.74-3.61-.22l-4.71-3.2c-.35,1.77-.61,3.13-.88,4.5A32.13,32.13,0,0,0,361,175.68c-7.89,6.41-13.14,14.41-12.81,24.82.3,9.72,5.06,17.2,12.55,23.64,6.74,5.79,14.54,7.19,22.41,6.81,4.85-.24,9.57-3.74,14.28-5.92,2.49-1.15,4.84-2.6,7.25-3.91,1.08,2.91,1.67,6.15,3.35,8.66,3.47,5.23,8.49,7.89,15,6.79l.77.73c.07,1.53.11,3.13,2.23,1.4l3.68.71c.51,3.81-.82,6.44-4.65,7.7-.57.19-.85,1.28-1.26,2l-1.25.12-1.69,1.37Z"/><path class="cls-9" d="M515.71,269.71c-4.72-1-9.4-2.16-14.16-2.89-3.53-.54-5.62-1.88-5.06-5.78L508,251.91c3.27-.74,6.6-1.28,9.8-2.26,2.91-.9,5.72-2.07,6.41-5.74.64-3.45,1.77-6.8,2.48-10.24,1.39-6.75,2.65-13.54,4-20.32q.48-2.53.94-5.08a3.74,3.74,0,0,0-2.55,2.09c-2.26,6-4.49,12-6.59,18.1-1,3-2.52,4.86-6,3.75-4.43-1.94-8.83-4-13.32-5.8-7.2-2.91-14.47-5.65-21.71-8.46.72-2.62,1.13-5.38,2.19-7.85,5.3-12.25,10.29-24.59,13.54-37.57l.82-1.46,2.07-2.93c.72-.95,1.45-1.9,2.17-2.86l9.2-5,2.39-.82,2-.12,5.09,0,1.42,0c12.42,3,16.56,13,19.8,23.69q9.39,31,18.76,62.12c2.36,7.84,4.68,15.7,7.13,23.52.6,1.92.47,3.1-1.76,3.36l-1.89.69-1.5,0-19.9.18-5.87-.27-3.69-.6-3.65-.18-1.5-.09-4.39-.62-3-.58-1.46-.15-2.22-.55Z"/><path class="cls-10" d="M263.41,311.07l-33.69.08q-2-11.64-4-23.26c2.49-6.45,2-13.05.9-19.67,0-.74,0-1.47-.07-2.21L223,264.34c-1-1.2-2.53-2.31-2.75-3.64-.72-4.38-1-8.85-1.35-13l3.35-2.37,1.48-1.45,18.38.72h1.5l5.87-.7,1.48.7,22.05,0c0,1,0,2,0,2.95,0,2.44,0,4.88,0,7.32-.48.75-.95,1.5-1.42,2.25-1.33,8.75-2.69,17.5-4,26.25-1.16,7.92-2.24,15.84-3.35,23.76C264,308.48,263.69,309.77,263.41,311.07Z"/><path class="cls-10" d="M416.85,51.12c11,.23,20.18,2,28.72,7.21,5.82,3.55,8.86,8.75,10.24,14.89a10,10,0,0,1-2.09,7.52c-4.19,5-2.47,10.17-1.6,15.48a61.19,61.19,0,0,1,.4,6.65c-2.12-.5-4.26-1-6.35-1.52a8.37,8.37,0,0,1-2.31-1.12c-6.06-4-12.34-4.06-19.47-3-13.55,2-26.27-.72-36.45-10.89-4.76-4.77-7.43-10.38-5.22-17.13a17,17,0,0,1,4.58-7.44C396.09,54.22,406.73,51.58,416.85,51.12Zm.29,18.7c-1.56,1.83-3.1,2.92-3.37,4.26-.15.73,2.16,2.89,2.79,2.68,1.57-.51,2.82-2,4.2-3.13Zm-19.5-.2c-1.52,1.94-3.22,3.22-3,4.08.28,1.25,1.92,2.19,3,3.26,1.13-1.13,2.61-2.1,3.2-3.47C401,73,399.28,71.56,397.64,69.62Zm38.66,0c-1.42,2-2.57,3-2.85,4.13-.46,2,.54,3.55,2.73,3.07,1.35-.3,2.5-1.54,3.74-2.36Z"/><path class="cls-11" d="M508,251.91,496.49,261c-8.36,1.8-15.41-1.59-22.55-5.27-3.17-1.64-7-2.08-10.48-3.05-.25-.48-.49-1-.73-1.44s-.46-1.16-.88-1.4c-5.3-3-10.53-6.11-16-8.67-1.84-.86-4.38-.21-6.6-.26l-3-4.32-6.63-3L423,235.14c-2-.5-4-1.46-6-1.4-3.55.1-5.4-1.82-6.79-4.55-1.63-3.18-3.14-6.43-4.7-9.65l6.63.06,3.33,1.41,2.51-2.78-2.33-3a44,44,0,0,1,6.11.85c5.62,1.54,11.18,3.3,16.77,5,5.16,1.29,10.28,2.86,15.51,3.77,4.1.7,8.35.58,12.52.83-.66,1.48,0,2.12,1.42,2.47,4.14,1,8.22,2.27,12.4,3a4.6,4.6,0,0,0,3.8-1.64c1.41-2.21,2.58-2,4.43-.73,5.19,3.63,10.41,7.22,15.73,10.65a80,80,0,0,0,7.29,3.81Z"/><path class="cls-8" d="M497.34,169.64a14.79,14.79,0,0,0-1.91,1.49c-2.41,2.58-5.25,3.94-8.39,1.73-5.14-3.64-8.92.29-13.08,2-.57.24-.71,1.65-.94,2.54-.83,3.17-2,5.69-6.08,5.5-4.33-.21-6.06-1.36-7-5.45a8.51,8.51,0,0,0-13.16-4.95c-2.23,1.57-4,3.53-6.81.48-3.57-3.92-3.94-5.47-2.07-9.19a8.83,8.83,0,0,0,.67-5.76c-1.09-4-2.34-8-7.88-8.5-2.95-.24-3.81-3.7-3.19-9.05.31-2.6,2.17-3.34,4.15-3.15,3.34.33,4.82-1.2,5.86-4.11,1.44-4,2.1-7.79-.79-11.57-.67-.87-.89-3.11-.28-3.77,4.85-5.19,5.06-6.74,11.35-2.5,4.41,3,11.47-.26,12-5.52.26-2.51.71-5.12,3.4-5.32,2.9-.22,5.92.58,8.8,1.28.57.14.9,1.84,1.07,2.87.28,1.68.34,3.39.48,5.09l-3.65,10c-8.11,1.93-15.15,4.87-19.87,12.78-5,8.39.42,18.91,6.09,22.47,7.19,4.52,13.48,4,20.72-.87,1.39-.94,2.9-1.71,4.35-2.55,3.52,2.8,6.93,5.83,11.85,5.72l2.1.14,2.24,8.11Z"/><path class="cls-12" d="M227.44,195.38l-.75-2.92c0-1.49,0-3,0-4.45,0-9.51,5.88-19.13,12.89-20.41,0,3.62.39,7.24-.11,10.73-.47,3.32-2,6.48-2.76,9.78-.18.79.67,2,1.33,2.72.4.45,1.54.2,2,.63,4.63,4.14,8.47,2.28,12.47-1.19,2-1.75,2.54-2.77.58-5-5.22-5.84-8-15.52-7-23.12,4.69-1.27,16.28,6.67,20.53,14.05,3.23,5.61,2.28,17-1.75,21.06-.88-3.26.41-2.81-8.78-7,0,1.89,0,3.53,0,5.17.14,6.48-.74,13,1.91,19.34.86,2.05-.74,5.11-1.21,7.72l-6.6-1.44-1.46,0-2.94-2.2L240,217.46l-3.69,0-.72-2.19c3.25-1.81,2.62-5.5-1.79-9.44-.16.78-.3,1.44-.44,2.09H217.13l-6.6-.75-2.23-.72c-4.28-1.1-8.51-2.31-12.11-6a39.25,39.25,0,0,1,31.23-.61c.55,3.35,3,3.72,6.39,4.07-1-2.21-2.18-3.76-2.43-5.44C231,195.9,229.76,195.11,227.44,195.38Z"/><path class="cls-13" d="M226.57,266c0,.74.05,1.47.07,2.21-.22,4.1-.45,8.19-.65,12.29-.24,4.78-1.52,6.06-6.18,6.06q-38.35,0-76.71,0a39.75,39.75,0,0,0-4.33.46c-.13-1.39-.25-2.78-.37-4.18l0-12.49-.06-4.43.43-.5a43.66,43.66,0,0,0,4.68.48Q185,266,226.57,266Zm-44,14.67h14c7.15,0,7.1,0,6.64-7.34-.13-1.95-.77-3-2.83-3-12.13,0-24.26,0-36.39.14-.91,0-2.12,1.53-2.58,2.61s0,2.42-.12,3.63c-.34,3.1,1,4.07,4,4C171.06,280.55,176.82,280.68,182.58,280.68Z"/><path class="cls-14" d="M469.86,123.83l3.65-10c10.06-12.08,23-10.49,36-7.22,5.14,1.28,7.31,5.36,7.22,11-.34.55-1,1.09-1,1.65q-.1,10,0,19.94c0,.56.63,1.11,1,1.66-.1,1.75-.21,3.49-.32,5.23a58.32,58.32,0,0,0-5.49,2.06c-2.88,1.41-4.92.42-6.63-1.91-1.5-2-4.85-3.33-2.08-6.89a5.36,5.36,0,0,0,.27-4.58c-.69-1.56-2.27-3.59-3.67-3.76s-3.23,1.51-4.59,2.69c-.73.63-.89,1.92-1.31,2.91l-.73,0-3.7-.62-1.6-.44-3.54-.35L481.8,133q-2.85-6.14-5.7-12.31c-1,2.24-2,4.5-3,6.76Z"/><path class="cls-15" d="M223.76,243.91l-1.48,1.45-11,.78c-4-.22-8-.57-12-.62-5.73-.08-11.45.1-17.18.11-9,0-18-.12-27,0-5.51.1-11,.61-16.53.94l-1.53-1c-.15-4.13-.38-8.26-.42-12.39,0-4.42,1-5.42,5.31-5.42q28.29,0,56.56,0c1.83,0,3.65-.16,5.48-.24,5.08.09,10.17,0,15.23.35,1.58.11,3.09,1.35,4.63,2.07Q223.78,236.92,223.76,243.91ZM145,231.36l-.65,1.52c0,2.2.17,4.42,0,6.61s.72,3.2,2.95,2.93c1.63,1.35,2.15.42,2.18-1.14.06-2.7.1-5.39-.05-8.08,0-.63-.86-1.21-1.32-1.82l-.76-.17-1-1.16L145,231.3Zm6.7-.05-.07.06c-2.29,1.46-1.59,3.31-.67,5.18a9.76,9.76,0,0,0,.11,2.92,15.59,15.59,0,0,0,1.72,2.93,23.43,23.43,0,0,0,2.47-2.92c.32-.54.07-1.44.08-2.17l-.38-3-.25-3C153.67,229.35,152.66,229.35,151.66,231.31Zm45.87,1.22c-10.94-2-21.89-2.68-32.82,0Zm-29.45,7.77v1.62h28.72C187.23,239.45,177.66,240.45,168.08,240.3Zm29.42-3,0-1.09H164.71v1.09Zm11.54-.8c0-1.22.29-2.54-.09-3.63-.29-.86-1.38-1.45-2.12-2.16-.7.74-1.92,1.42-2,2.23a32.31,32.31,0,0,0,0,7.29c.09.79,1.37,1.43,2.11,2.14.7-.74,1.74-1.37,2-2.24A12.54,12.54,0,0,0,209,236.53Zm6.6.18h0a10.66,10.66,0,0,0-.07-3.25,11.23,11.23,0,0,0-1.91-2.69c-.79.84-2.14,1.6-2.26,2.52a30.32,30.32,0,0,0,0,7.25,2.69,2.69,0,0,0,2,1.72,2.76,2.76,0,0,0,2.13-1.59A14.5,14.5,0,0,0,215.64,236.71Z"/><path class="cls-16" d="M114.83,122.59l1.2-2.2,5,2.71c-1.87,8.86-3.73,17.73-5.64,26.59a6.41,6.41,0,0,1-1.11,1.78c-1.27,3.54-2.9,7-3.68,10.65-.56,2.62,0,5.48.07,8.22l-2.94,12.87-.93-1.52-.84.38,1,2.47-.19,1.27c-.41.22-1.11.37-1.18.67-1.36,5.34-2.7,10.67-3.84,16.05-.14.68.88,1.6,1.37,2.4-2.16,10.28-4.25,20.58-6.48,30.85-3.14,14.43-6.37,28.83-9.57,43.24a20.1,20.1,0,0,1-.85,2.4l-1.44-5.12-.86,0a56.43,56.43,0,0,1-2.11,5.89c-.53,1.1-1.53,2.62-2.49,2.75a61,61,0,0,0-20.18,6.23c-.49.26-1.36-.22-2.06-.36,5.6-4.33,12.15-6.22,19-7,2.43-.29,3.48-1,4-3.54,7.4-34.3,15-68.57,22.47-102.84q5.68-26,11.3-52C114.16,124.42,114.53,123.52,114.83,122.59Z"/><path class="cls-10" d="M396.52,311.13l-28.54,0L365,308c-2.54-4.69-5.14-9.35-7.61-14.08-1.43-2.74-.36-4.07,3.33-4.41,11.46,0,22.93.1,34.39.12,3.14,0,6.27-.11,9.41-.16,2.84.07,3.8,1.26,2.33,3.91q-4,7.29-8,14.59Z"/><path class="cls-11" d="M488.5,135.92l3.7.62.73,0c.42-1,.58-2.28,1.31-2.91,1.36-1.18,3.17-2.87,4.59-2.69s3,2.2,3.67,3.76a5.36,5.36,0,0,1-.27,4.58c-2.77,3.56.58,4.87,2.08,6.89,1.71,2.33,3.75,3.32,6.63,1.91a58.32,58.32,0,0,1,5.49-2.06l5.84,13.29-1.42,0-5.09,0-2,.12-2.39.82-9.2,5-5.68-4.39c4.41-.53,6.73-2.66,7.93-8.2-4.29,2.85-7.87,5.22-11.42,7.64-.17.12,0,.69,0,1-4.93.11-8.34-2.92-11.86-5.72q-2.88-4.42-5.75-8.84c2.86.11,3.37-1.91,3.53-4.06.14-2,0-4,0-5.69l4.4-1.94,3.54.35Z"/><path class="cls-12" d="M388.46,166.74c1.36-2.52,2.49-.88,3.61.22Q409.5,184,427,201.05c3.23,3.14,6.7,6,10.06,9,0,.24,0,.49,0,.73v7c-6.24-3.12-11.57-5.4-16.51-8.33-10.16-6.05-20-12.57-28.06-21.42-1-1.08-2.69-1.51-4.06-2.24.15-.83.34-1.66.44-2.5C389.51,177.78,391.41,172.2,388.46,166.74Z"/><path class="cls-12" d="M256.13,227.74a49.11,49.11,0,0,1,20.35-11.69c7.62-2.36,15.22-1.26,22.84-.67,2,.15,3.2,1.52,1.84,3.63-6,9.24-13.48,16.66-24.51,19.28-3.49.83-7.29.33-10.95.44L262,236.58l-8.06-3c-.25-.73-.51-1.46-.77-2.19l0-2.18Z"/><path class="cls-6" d="M326.38,45.27,331,51.89l-14.21,9.82L278.67,87.15c-4.37,2.8-8.83,5.49-13.08,8.47-1.79,1.26-2.88,1.34-4.1-.54s-2.67-3.71-4-5.56c3.24-1.86,6.57-3.55,9.69-5.59,11.7-7.66,23.29-15.48,35-23.14C310.17,55.53,318.3,50.44,326.38,45.27Z"/><path class="cls-17" d="M217,170.08c.37-2,.25-4.21,1.2-5.83a126.3,126.3,0,0,1,8.68-12.93c1.48-1.93,2.8-.42,3.34,1.32,2.34,7.65-2.63,19.26-10,22.9-.83.41-3.18-.26-3.38-.89-2.16-6.85-6.59-7.06-12.86-6-7.53,1.27-14.07-1.67-18.22-8.62-1.48-2.48-1-3.35,2-3.64,7.5-.74,13.8,2.24,19.8,6.22.41.27.78.58,1.18.86a5.63,5.63,0,0,0,1.08,0c-1.71-3-3.25-5.66-4.5-7.82a29.85,29.85,0,0,0,1.52-4.71,37.72,37.72,0,0,1,6.27-16.56c4.24,4.72,5.32,12.81,2.48,17.82-1.43,2.52-3.13,4.89-4.5,7.45a3.3,3.3,0,0,0,.17,2.67c1.48,2.71,3.18,5.31,4.8,8Z"/><path class="cls-18" d="M439.22,241c2.22.05,4.76-.6,6.6.26,5.5,2.56,10.73,5.7,16,8.67.42.24.6.92.88,1.4-4.1-.85-8.47-1.08-12.25-2.71-4.91-2.1-9,.24-13.45,1-.55.09-.93,1.2-1.38,1.84l-.19.14h-.24c-1.1.88-2.21,1.77-3.31,2.67h0c-.74.28-1.77.34-2.16.88-1.8,2.46-3.42,5-5.11,7.58l-6.14,7-2,2-2.17.29-4.42,1.79c-1.67-.11-4.32,2-4.27-1.94l1.89-1.9,1.6-.23c.7-.42,1.41-.83,2.12-1.24a1.12,1.12,0,0,1,.34-.38,1.42,1.42,0,0,0,.3-.3l.48-1.89c.25-1.24.51-2.47.76-3.71l-4.68.53-5.36.29-2.06.84-.84.78-2.82,2-2.19.94-2.33-2.17c2.48-2.61,4.68-5.57,7.51-7.72,2.18-1.66,5.07-2.52,7.76-3.36,3-.93,6.06-1.44,9.11-2.13l3.61-1.57,1.69-1.37,1.25-.12Z"/><path class="cls-19" d="M278.67,87.15l38.09-25.44c2.54,5.39.47,17-6.09,23.57C302.25,93.69,287,93.55,278.67,87.15Z"/><path class="cls-18" d="M511.61,243.24a80,80,0,0,1-7.29-3.81c-5.32-3.43-10.54-7-15.73-10.65-1.85-1.29-3-1.48-4.43.73a4.6,4.6,0,0,1-3.8,1.64c-4.18-.75-8.26-2-12.4-3-1.46-.35-2.08-1-1.42-2.47l13.2-6.87.72-.6v0l1-.26c7.24,2.81,14.51,5.55,21.71,8.46,4.49,1.81,8.89,3.86,13.32,5.8Q514,237.73,511.61,243.24Z"/><path class="cls-20" d="M537,272.64l5.87.27c.54.38,1.09,1.08,1.64,1.09,5.46.08,10.93.09,16.4,0,.63,0,1.24-.83,1.86-1.27l1.5,0c.32.66.64,1.31,1,2q.76,2.63,1.51,5.25l.78,2.36.93,3.49-.27,1.39c-7.8.63-15.21-1-22.55-3.56-5.1-1.8-10.49-2.76-15.64-4.47-6.06-2-12-4.39-17.95-6.7-.6-.23-1-1.05-1.62-1.8l5.26-.93,1.46.16,2.22.55,1.46.15,3,.58,4.39.62,1.5.09,3.65.18Z"/><path class="cls-12" d="M275.76,213.14c-4.47-1.77-9-3.43-13.36-5.43-.52-.24-.76-3-.23-3.38,6.55-5.21,13.19-10.51,22-11a121.3,121.3,0,0,1,13.46.57c2.34.14,2.26,1.61,1.26,3-4.8,6.84-10.24,12.95-18.83,15a27.66,27.66,0,0,1-4,.39Z"/><path class="cls-12" d="M294.38,155.7c4.11-.23,8.21-.53,12.32-.56.39,0,1.38,2,1.09,2.65C305,163.68,297.54,167.22,291,166c-5.36-1-8.38-3.55-9-9.14-.67-6.37-1-12.92,3.5-18.8,4.69,2.88,4.47,8.31,6.59,12.45-.17,2.1-.35,4.21-.62,7.51Z"/><path class="cls-12" d="M270.91,183.5c1.94-2.89,1.84-5.82,5.73-5.66,1.65.07,3.27-2.39,5.1-3.3a32.74,32.74,0,0,1,20.94-2.64c1.92.35,2.42,1.44,1.32,3.16-4.55,7.12-10.84,12.27-19.31,12.65C280.39,187.9,276,185.15,270.91,183.5Z"/><path class="cls-3" d="M322,38.18l2.6,4.2a13.08,13.08,0,0,1-2,2.06Q301,58.78,279.38,73c-4.75,3.12-9.62,6.07-14.43,9.1L262,79.91a46.34,46.34,0,0,1,4.65-4c14.77-9.83,29.62-19.52,44.36-29.38C314.82,44,318.31,41,322,38.18Z"/><path class="cls-21" d="M388.39,185.83c1.38.73,3.09,1.16,4.07,2.24,8.07,8.85,17.9,15.37,28.06,21.42,4.94,2.93,10.27,5.21,16.51,8.33v-7a54.29,54.29,0,0,1,1.43,5.54,32,32,0,0,1,.05,4.7c-5.59-1.68-11.15-3.44-16.77-5a44,44,0,0,0-6.11-.85c-2.25-1.91-4.6-3.73-6.75-5.75-6-5.66-11.91-11.41-17.87-17.11-1.3-1.25-2.67-2.43-4-3.65Z"/><path class="cls-20" d="M141.44,311.42l-11.8.16-1.23-1.27a10.75,10.75,0,0,1-1-3c-.11-5-.19-10,0-15,.06-1.27,1.34-2.49,2.06-3.73a14.63,14.63,0,0,0,3.27.9c3.12.14,6.25.09,9.38.11Q141.81,300.5,141.44,311.42Z"/><path class="cls-17" d="M223.8,229.93c-1.54-.72-3.05-2-4.63-2.07-5.06-.34-10.15-.26-15.23-.35l-3.41-3.94c12.08-5.48,23.54-3.16,35,.49l4.41,1.47c0,.49,0,1,0,1.47l-.76,1.45c-4.13,2.84-8.06,6.18-13,5.64C225.22,232.36,224.51,231.15,223.8,229.93Z"/><path class="cls-19" d="M404.48,289.43c-3.14.05-6.27.16-9.41.16-11.46,0-22.93-.08-34.39-.12,1.11-3.7,4-5.67,7.34-6.71a66.35,66.35,0,0,1,11.28-2.29c1.27-.16,2.71.79,4.05,1.31,1,.36,1.95,1.3,2.84,1.2,6.08-.73,11.27,2.07,16.64,4.07C403.57,287.33,403.94,288.61,404.48,289.43Z"/><path class="cls-12" d="M276.12,175.2c-8.32-6.47-10.46-15.31-9.73-25.3.18-2.37,1.15-2.67,3.08-1.89,4.65,1.88,10.17,10,10.2,15.09C279.71,171.75,279.71,171.75,276.12,175.2Z"/><path class="cls-17" d="M224.14,186a63.33,63.33,0,0,1-6.55.88,21.58,21.58,0,0,1-6.43-.44c-4.85-1.36-9.64-3-14.38-4.73-.94-.34-1.54-1.64-2.29-2.5a12.3,12.3,0,0,1,2.77-2.09c6.06-2.29,11.86-1.41,18.1.29C220.8,178.93,222.57,182.36,224.14,186Z"/><path class="cls-17" d="M202,126.47c1.28,5,2.39,9.93-1.35,14.66a4.09,4.09,0,0,0-.76,3.33c1.29,3.45-.87,4.81-3.37,5.11-6.57.78-12.79-.41-18.25-4.48,2.52-4.1,10.14-5,17.52-2.21a70,70,0,0,1,1.46-9c.8-2.73,2.31-5.25,3.51-7.87Z"/><path class="cls-22" d="M491.2,311.38l-2,.29-37.55-.29a1.06,1.06,0,0,1,0-.61l3.87-4.24,1.32-.81,10.33-3.65c7.54,2.71,15.08,5.41,22.61,8.16C490.37,310.42,490.75,311,491.2,311.38Z"/><path class="cls-23" d="M265,82.12c4.81-3,9.68-6,14.43-9.1Q301,58.79,322.54,44.44a13.08,13.08,0,0,0,2-2.06l1.83,2.89c-8.08,5.17-16.21,10.26-24.23,15.52-11.7,7.66-23.29,15.48-35,23.14-3.12,2-6.45,3.73-9.69,5.59a.26.26,0,0,1-.2-.31,34.72,34.72,0,0,1,3-3.41C261.71,84.47,263.37,83.34,265,82.12Z"/><path class="cls-23" d="M322,38.18C318.31,41,314.82,44,311,46.51c-14.74,9.86-29.59,19.55-44.36,29.38a46.34,46.34,0,0,0-4.65,4c-1.21.49-2.42,1-3.62,1.47-1.65.7-3.28,1.44-4.91,2.16l-.51-2.1c3.86-2.22,7.82-4.27,11.55-6.69,9.08-5.92,18-12,27.06-18,8.61-5.74,17.22-11.49,25.89-17.13a22.2,22.2,0,0,1,4.34-1.68Z"/><path class="cls-12" d="M297.3,150.51c.78-4.73,4.79-6.67,8.25-8.6,3-1.66,6.59-2.25,10-2.92,2.33-.46,2.73,1.37,2.07,3.07-2.54,6.5-9.69,12.73-17.37,9.93Z"/><path class="cls-3" d="M122.91,263.19l-.66-14.84a63.88,63.88,0,0,1,6.87-.67c.87,0,2.47.94,2.48,1.48.14,4.26,0,8.52-.09,12.79q-4.17.48-8.33,1C123.08,263,123,263.1,122.91,263.19Z"/><path class="cls-20" d="M122.91,263.19c.09-.09.17-.24.27-.25q4.16-.51,8.33-1c.07-4.27.23-8.53.09-12.79,0-.54-1.61-1.48-2.48-1.48a63.88,63.88,0,0,0-6.87.67c.73-.73,1.4-2,2.18-2.08,4.18-.39,8.38-.48,12.58-.68l1.53,1q-.4,8.19-.82,16.38l0,1Z"/><path class="cls-5" d="M142.18,289.59c-3.13,0-6.26,0-9.38-.11a14.63,14.63,0,0,1-3.27-.9l7.48-.65,1.57.05c2.07.07,4.14.2,6.22.2,23.62,0,47.25,0,70.88,0,2.18,0,4.36.43,6.54.65l.63,2.14a61.53,61.53,0,0,0-7.29-1.38c-3.14-.23-6.31,0-9.46,0H201l-52.28,0Z"/><path class="cls-5" d="M137.76,264c0-.35,0-.69,0-1l3-.67h5.86c11.69.24,23.39.5,35.09.67a28.42,28.42,0,0,0,4.63-.68l13.94,0,10.35.69v.83l-.7.57c-5-.05-10-.16-15-.15q-28.09,0-56.19.16Z"/><path class="cls-24" d="M138.63,264.43q28.1-.09,56.19-.16c5,0,10,.1,15,.16l13.17-.09,3.54,1.67q-41.56,0-83.15-.07a43.66,43.66,0,0,1-4.68-.48C138.7,265.12,138.66,264.78,138.63,264.43Z"/><path class="cls-17" d="M177.93,121c6.65-1.42,13.14,5.64,11.26,12C184.17,130.22,180.24,126.69,177.93,121Z"/><path class="cls-8" d="M481.43,218l-1,.26c-1.53-3.91,1.28-6.9,2.44-10.1,2.92-8.05,6.5-15.86,9.63-23.83,1.14-2.89,1.63-6,2.63-9a11.62,11.62,0,0,1,2-2.77c-3.25,13-8.24,25.32-13.54,37.57C482.56,212.57,482.15,215.33,481.43,218Z"/><path class="cls-6" d="M253.47,83.54c1.63-.72,3.26-1.46,4.91-2.16,1.2-.51,2.41-1,3.62-1.47L265,82.12c-1.58,1.22-3.24,2.35-4.71,3.68a34.72,34.72,0,0,0-3,3.41Z"/><path class="cls-25" d="M138.58,288l-1.57-.05c-.5-5.19-1.24-10.37-1.37-15.57-.06-2.25-.54-5.26,2.67-6.4l.06,4.43,0,12.49c.12,1.4.24,2.79.37,4.18C138.7,287.37,138.64,287.67,138.58,288Z"/><path class="cls-4" d="M110.7,170.34c-.06-2.74-.63-5.6-.07-8.22.78-3.64,2.41-7.11,3.68-10.65l-3.09,15.95-.24,1.39Z"/><path class="cls-4" d="M103.17,204.93c-.49-.8-1.51-1.72-1.37-2.4,1.14-5.38,2.48-10.71,3.84-16.05.07-.3.77-.45,1.18-.67q-1.78,7.94-3.56,15.87c0,.7,0,1.4,0,2.09Z"/><path class="cls-21" d="M227.44,195.38c2.32-.27,3.55.52,3.94,3.07.25,1.68,1.4,3.23,2.43,5.44-3.4-.35-5.84-.72-6.39-4.07C231,198.35,226.7,196.86,227.44,195.38Z"/><path class="cls-21" d="M253.16,231.39c.26.73.52,1.46.77,2.19l-2.94,11-1.48-.7c.81-4,1.61-7.92,2.49-11.86C252.07,231.77,252.76,231.61,253.16,231.39Z"/><path class="cls-21" d="M297.3,150.51l2.95,1.48-6.37,2.47c.17.42.34.83.5,1.24L291.52,158c.27-3.3.45-5.41.62-7.51Z"/><path class="cls-21" d="M233.32,207.89c.14-.65.28-1.31.44-2.09,4.41,3.94,5,7.63,1.79,9.44C234.81,212.79,234.06,210.34,233.32,207.89Z"/><path class="cls-14" d="M517,119.64q0,8.07,0,16.15Q517,127.71,517,119.64Z"/><path class="cls-5" d="M517,119.64q0,8.07,0,16.15c-.08,1.67-.16,3.35-.25,5-.34-.55-1-1.1-1-1.66q-.1-10,0-19.94c0-.56.64-1.1,1-1.65C516.85,118.25,516.93,118.94,517,119.64Z"/><path class="cls-21" d="M256.13,227.74l-2.94,1.47c.56-3.15.89-6.21-2.89-7.74-.06,0-.05-.22-.07-.34l6.6,1.44C256.59,224.29,256.36,226,256.13,227.74Z"/><path class="cls-21" d="M239.94,225.53l-4.41-1.47c2.37.15,2.45-1.36,2.05-3a30.78,30.78,0,0,0-1.31-3.62l3.69,0Q240,221.5,239.94,225.53Z"/><path class="cls-25" d="M467.24,302.07l-10.33,3.65c.78-.51,1.53-1.08,2.35-1.51,1.57-.82,4-1,2.83-3.8Z"/><path class="cls-22" d="M424.62,262.69c1.69-2.54,3.31-5.12,5.11-7.58.39-.54,1.42-.6,2.16-.88L426.21,263Z"/><path class="cls-21" d="M217.13,207.9h9.6C224.67,210,219.18,210,217.13,207.9Z"/><path class="cls-22" d="M392.87,265.34l2.33,2.17c-1.22,2.19-2.83,2.58-6.37.08Z"/><path class="cls-22" d="M408.47,262.68l4.68-.53c-.25,1.24-.51,2.47-.76,3.71C412.56,263,410.54,262.79,408.47,262.68Z"/><path class="cls-25" d="M263.41,311.07c.28-1.3.57-2.59.85-3.89l2.2,3.93Z"/><path class="cls-25" d="M365,308l3,3.15h-3.79C364.45,310.06,364.71,309,365,308Z"/><path class="cls-17" d="M226.7,188c0,1.48,0,3,0,4.45C223.91,189.52,223.91,188.91,226.7,188Z"/><path class="cls-25" d="M455.59,306.53l-3.87,4.24Z"/><path class="cls-25" d="M396.52,311.13l2.27-3.2c0,1.08,0,2.16,0,3.24Z"/><path class="cls-22" d="M409.93,273.74l4.42-1.79Z"/><path class="cls-8" d="M500.05,168.14,498,171.07c-.21-.48-.43-.95-.64-1.43h0Z"/><path class="cls-21" d="M262,236.58l3.71,2.15Z"/><path class="cls-22" d="M566.85,298.37l1.26-3.56Z"/><path class="cls-22" d="M565.26,274.68c-.31-.66-.63-1.31-1-2l1.89-.69C565.89,272.91,565.58,273.79,565.26,274.68Z"/><path class="cls-4" d="M107,184.54l-1-2.47.84-.38.93,1.52Z"/><path class="cls-21" d="M273.05,247.6c0-1,0-2,0-2.95.47.43,1.4,1,1.32,1.26C274.18,246.55,273.52,247.05,273.05,247.6Z"/><path class="cls-22" d="M397.39,266.57l2.82-2Z"/><path class="cls-5" d="M246,61.65c.16.94.33,1.89.49,2.83C246.34,63.54,246.17,62.59,246,61.65Z"/><path class="cls-22" d="M561.36,306.29l2-2.08Z"/><path class="cls-22" d="M416.52,271.66l2-2C417.82,270.33,417.17,271,416.52,271.66Z"/><path class="cls-22" d="M407.55,269.9l-1.89,1.9Z"/><path class="cls-22" d="M411.27,268.43c-.71.41-1.42.82-2.12,1.24Z"/><path class="cls-16" d="M103.27,203.77c0-.69,0-1.39,0-2.09C103.26,202.38,103.26,203.08,103.27,203.77Z"/><path class="cls-21" d="M208.3,206.43l2.23.72Z"/><path class="cls-22" d="M567.55,282.29l-.78-2.36Z"/><path class="cls-21" d="M271.59,257.17c.47-.75.94-1.5,1.42-2.25C272.53,255.67,272.06,256.42,271.59,257.17Z"/><path class="cls-22" d="M401.05,263.81l2.06-.84Z"/><path class="cls-5" d="M245.6,57.93l.15,1.43Z"/><path class="cls-16" d="M111,168.81l.24-1.39Z"/><path class="cls-22" d="M557.65,309.13l1.5-1Z"/><path class="cls-22" d="M568.21,287.17l.27-1.39c.09.48.17,1,.25,1.43h-.26Z"/><path class="cls-22" d="M568.49,293.24l.24-1.42Z"/><path class="cls-22" d="M564.43,302.71c.36-.5.71-1,1.06-1.51C565.14,301.71,564.78,302.21,564.43,302.71Z"/><path class="cls-22" d="M411.91,267.75a1.42,1.42,0,0,1-.3.3l.06-.24Z"/><path class="cls-22" d="M565.62,301a.53.53,0,0,1,.31-.56Z"/><path class="cls-8" d="M480.46,218.19l-.72.6Z"/><path class="cls-16" d="M56.64,291.24c.21,4.75-3.21,8.11-6.94,6.82Z"/><path class="cls-22" d="M435.65,251.41c.45-.64.83-1.75,1.38-1.84,4.42-.76,8.54-3.1,13.45-1,3.78,1.63,8.15,1.86,12.25,2.71.24.48.48,1,.73,1.44-2.61-.55-5.27-.91-7.8-1.69A29.88,29.88,0,0,0,435.65,251.41Z"/><path class="cls-22" d="M431.91,254.22c1.1-.9,2.21-1.79,3.31-2.67Z"/><path class="cls-20" d="M148.7,289.62l52.28,0a22,22,0,0,0-.71,3.88c-.07,6,0,12,0,18H148.72Q148.72,300.53,148.7,289.62Zm27.67,2.83c-1.78,0-3-.07-4.21,0-3.86.27-7.46,3.21-7.93,6.4s2.07,5.91,5.62,8c3.94,2.32,7.52.79,11.1.1,4.5-.87,6.35-6.9,4-10.67C182.71,292.71,179.55,292.07,176.37,292.45Z"/><path class="cls-20" d="M206.1,289.58c3.15,0,6.32-.22,9.46,0a61.53,61.53,0,0,1,7.29,1.38q.15,10.26.29,20.51l-15.59-.05c0-1.44.13-2.9,0-4.34C207.11,301.25,206.59,295.42,206.1,289.58Z"/><path class="cls-3" d="M148.7,289.62q0,10.9,0,21.83l-7.28,0q.36-10.92.74-21.83Z"/><path class="cls-3" d="M206.1,289.58c.49,5.84,1,11.67,1.47,17.51.11,1.44,0,2.9,0,4.34h-7.29c0-6-.06-12,0-18a22,22,0,0,1,.71-3.88Z"/><path class="cls-25" d="M223.14,311.48q-.15-10.26-.29-20.51l-.63-2.14,3.52-.94q2,11.63,4,23.26Z"/><path class="cls-4" d="M122.52,116.7a5.9,5.9,0,0,1-6.14-6.22c.17-4.09,2.74-6.46,6.85-6.31a6.49,6.49,0,0,1,6.18,6.8C129.29,114.84,127,116.78,122.52,116.7Z"/><path class="cls-2" d="M404.66,221.12c-2.41,1.31-4.76,2.76-7.25,3.91-4.71,2.18-9.43,5.68-14.28,5.92-7.87.38-15.67-1-22.41-6.81-7.49-6.44-12.25-13.92-12.55-23.64-.33-10.41,4.92-18.41,12.81-24.82A32.13,32.13,0,0,1,382.87,168c.66,1.36,1.81,2.69,1.92,4.1.43,5.52.54,11.06.76,16.6l-2.92,4.41a12.42,12.42,0,0,0,4.11,10.28c5.92,5.45,12,10.72,18,16.06C404.72,220,404.69,220.58,404.66,221.12Z"/><path class="cls-24" d="M385.55,188.74c-.22-5.54-.33-11.08-.76-16.6-.11-1.41-1.26-2.74-1.92-4.1.27-1.37.53-2.73.88-4.5l4.71,3.2c3,5.46,1.05,11,.38,16.59-.1.84-.29,1.67-.44,2.5-.47,1-.93,1.94-1.39,2.9Z"/><path class="cls-25" d="M439.22,241l-15.42,8.12c.41-.68.69-1.77,1.26-2,3.83-1.26,5.16-3.89,4.65-7.7l3-1.38,3.52-1.4Z"/><path class="cls-25" d="M404.66,221.12c0-.54.06-1.09.08-1.63l.75,0c1.56,3.22,3.07,6.47,4.7,9.65,1.39,2.73,3.24,4.65,6.79,4.55,2-.06,4,.9,6,1.4l.06,1.43c-6.53,1.1-11.55-1.56-15-6.79C406.33,227.27,405.74,224,404.66,221.12Z"/><path class="cls-24" d="M423,236.57l-.06-1.43,6.67-1.49,3.11,4.38-3,1.38L426,238.7c-.75-.46-1.49-.93-2.23-1.4Z"/><path class="cls-25" d="M423.8,237.3c.74.47,1.48.94,2.23,1.4C423.91,240.43,423.87,238.83,423.8,237.3Z"/><path class="cls-25" d="M422.55,249.19l-1.69,1.37Z"/><path class="cls-26" d="M511.61,243.24q2.43-5.51,4.85-11c3.49,1.11,5-.77,6-3.75,2.1-6.07,4.33-12.09,6.59-18.1a3.74,3.74,0,0,1,2.55-2.09q-.47,2.55-.94,5.08c-1.31,6.78-2.57,13.57-4,20.32-.71,3.44-1.84,6.79-2.48,10.24-.69,3.67-3.5,4.84-6.41,5.74-3.2,1-6.53,1.52-9.8,2.26Z"/><path class="cls-3" d="M562.81,272.73c-.62.44-1.23,1.25-1.86,1.27-5.47.09-10.94.08-16.4,0-.55,0-1.1-.71-1.64-1.09Z"/><path class="cls-1" d="M500.05,168.14l-2.71,1.49c-.75-2.7-1.49-5.41-2.24-8.11l1.44-.63,5.68,4.39C501.5,166.24,500.77,167.19,500.05,168.14Z"/><path class="cls-3" d="M537,272.64l-3.69-.6Z"/><path class="cls-3" d="M523.81,271.15l-3-.58Z"/><path class="cls-1" d="M515.76,159.33l5.09,0Z"/><path class="cls-3" d="M519.39,270.42l-2.22-.55Z"/><path class="cls-3" d="M529.7,271.86l-1.5-.09Z"/><path class="cls-1" d="M511.42,160.27l2.39-.82Z"/><path class="cls-1" d="M239.94,225.53q0-4,0-8.07l5.87,1.45,2.94,2.2,1.46,0c0,.12,0,.32.07.34,3.78,1.53,3.45,4.59,2.89,7.74l0,2.18c-.4.22-1.09.38-1.16.68-.88,3.94-1.68,7.9-2.49,11.86l-5.87.7c-.75-5.23-1.46-10.47-2.3-15.68-.11-.71-.9-1.31-1.38-1.95C240,226.51,240,226,239.94,225.53Z"/><path class="cls-2" d="M223.8,229.93c.71,1.22,1.42,2.43,2.42,4.16,4.92.54,8.85-2.8,13-5.64l2.94,16.18-18.38-.72Q223.78,236.92,223.8,229.93Z"/><path class="cls-24" d="M225.74,287.89l-3.52.94c-2.18-.22-4.36-.64-6.54-.65-23.63,0-47.26,0-70.88,0-2.08,0-4.15-.13-6.22-.2.06-.31.12-.61.19-.92a39.75,39.75,0,0,1,4.33-.46q38.35,0,76.71,0c4.66,0,5.94-1.28,6.18-6.06.2-4.1.43-8.19.65-12.29C227.71,274.84,228.23,281.44,225.74,287.89Z"/><path class="cls-25" d="M223,264.34l-13.17.09.7-.58.92-.76-.22-16.95,11-.78-3.35,2.37c.39,4.12.63,8.59,1.35,13C220.5,262,222.07,263.14,223,264.34Z"/><path class="cls-21" d="M242.14,244.63l-2.94-16.18L240,227c.48.64,1.27,1.24,1.38,1.95.84,5.21,1.55,10.45,2.3,15.68Z"/><path class="cls-1" d="M417.14,69.82l3.62,3.81c-1.38,1.11-2.63,2.62-4.2,3.13-.63.21-2.94-2-2.79-2.68C414,72.74,415.58,71.65,417.14,69.82Z"/><path class="cls-1" d="M397.64,69.62c1.64,1.94,3.4,3.34,3.16,3.87-.59,1.37-2.07,2.34-3.2,3.47-1.07-1.07-2.71-2-3-3.26C394.42,72.84,396.12,71.56,397.64,69.62Z"/><path class="cls-1" d="M436.3,69.67l3.62,4.84c-1.24.82-2.39,2.06-3.74,2.36-2.19.48-3.19-1.11-2.73-3.07C433.73,72.63,434.88,71.66,436.3,69.67Z"/><path class="cls-17" d="M385.55,188.74H387c1.33,1.22,2.7,2.4,4,3.65,6,5.7,11.87,11.45,17.87,17.11,2.15,2,4.5,3.84,6.75,5.75l2.33,3L415.45,221l-3.33-1.41a40,40,0,0,0-2.74-2.93Q396,204.88,382.63,193.15Z"/><path class="cls-19" d="M382.63,193.15Q396,204.9,409.38,216.67a40,40,0,0,1,2.74,2.93l-6.63-.06-.75,0c-6-5.34-12.08-10.61-18-16.06A12.42,12.42,0,0,1,382.63,193.15Z"/><path class="cls-21" d="M432.75,238l-3.11-4.38,6.63,3Z"/><path class="cls-2" d="M475.4,146.82q2.88,4.41,5.75,8.84c-1.45.84-3,1.61-4.35,2.55-7.24,4.86-13.53,5.39-20.72.87C450.41,155.52,445,145,450,136.61c4.72-7.91,11.76-10.85,19.87-12.78l3.21,3.62c0,.54,0,1.08,0,1.63-.87.61-2.08,1-2.56,1.85-2.21,3.89.61,12.94,4.63,15.31C475.24,146.43,475.32,146.62,475.4,146.82Z"/><path class="cls-18" d="M496.54,160.89l-1.44.63-2.1-.14c0-.36-.12-.93.05-1,3.55-2.42,7.13-4.79,11.42-7.64C503.27,158.23,501,160.36,496.54,160.89Z"/><path class="cls-21" d="M248.77,221.11l-2.94-2.2Z"/><path class="cls-27" d="M182.58,280.68c-5.76,0-11.52-.13-17.28.06-3,.09-4.37-.88-4-4,.13-1.21-.32-2.6.12-3.63s1.67-2.6,2.58-2.61c12.13-.18,24.26-.11,36.39-.14,2.06,0,2.7,1,2.83,3,.46,7.35.51,7.34-6.64,7.34Z"/><path class="cls-24" d="M138.4,282.88l0-12.49Z"/><path class="cls-11" d="M473.08,129.08c0-.55,0-1.09,0-1.63,1-2.26,2-4.52,3-6.76q2.86,6.18,5.7,12.31c-1.81,2.37-3.38,1.82-5.08-.24a31.6,31.6,0,0,0-3.54-3.17C473.15,129.42,473.11,129.25,473.08,129.08Z"/><path class="cls-22" d="M473.18,129.59a31.6,31.6,0,0,1,3.54,3.17c1.7,2.06,3.27,2.61,5.08.24l1.56,2.13-4.4,1.94c0,1.69.11,3.7,0,5.69-.16,2.15-.67,4.17-3.53,4.06-.08-.2-.16-.39-.25-.58,0-.55.09-1.11.13-1.66.5-.72,1-1.44,1.51-2.17q-1.44-5.19-2.87-10.38c-.05-.2-.09-.41-.14-.61Z"/><path class="cls-22" d="M488.5,135.92l-1.6-.44Z"/><path class="cls-22" d="M492.93,136.56l-.73,0Z"/><path class="cls-3" d="M211.26,246.14q.12,8.48.22,16.95l-.93-.07-10.35-.69c0-4.26.12-8.53,0-12.78,0-.9-1-2.51-1.6-2.54-4.19-.22-8.41-.12-12.29-.12V262.3a28.42,28.42,0,0,1-4.63.68c-11.7-.17-23.4-.43-35.09-.67,0-4.26-.08-8.51,0-12.77.06-2.09-.77-2.75-2.79-2.73s-3.24.27-3.16,2.74c.15,4.25,0,8.51.06,12.76l-3,.67q.42-8.19.82-16.38c5.51-.33,11-.84,16.53-.94,9-.15,18,0,27,0,5.73,0,11.45-.19,17.18-.11C203.25,245.57,207.26,245.92,211.26,246.14Z"/><path class="cls-26" d="M197.53,232.53H164.71C175.64,229.85,186.59,230.57,197.53,232.53Z"/><path class="cls-26" d="M168.08,240.3c9.58.15,19.15-.85,28.71,1.62H168.07Z"/><path class="cls-26" d="M197.5,237.33H164.72v-1.09h32.77Z"/><path class="cls-3" d="M209,236.53a12.54,12.54,0,0,1-.08,3.63c-.28.87-1.32,1.5-2,2.24-.74-.71-2-1.35-2.11-2.14a32.31,32.31,0,0,1,0-7.29c.09-.81,1.31-1.49,2-2.23.74.71,1.83,1.3,2.12,2.16C209.33,234,209,235.31,209,236.53Z"/><path class="cls-3" d="M215.64,236.71a14.5,14.5,0,0,1-.1,4,2.76,2.76,0,0,1-2.13,1.59,2.69,2.69,0,0,1-2-1.72,30.32,30.32,0,0,1,0-7.25c.12-.92,1.47-1.68,2.26-2.52a11.23,11.23,0,0,1,1.91,2.69,10.66,10.66,0,0,1,.07,3.25Z"/><path class="cls-3" d="M154.67,231.31c.09,1,.17,2,.25,3s.25,2,.38,3c0,.73.24,1.63-.08,2.17a23.43,23.43,0,0,1-2.47,2.92,15.59,15.59,0,0,1-1.72-2.93,9.76,9.76,0,0,1-.11-2.92c.22-1.72.45-3.45.67-5.18l.07-.06Z"/><path class="cls-3" d="M147.33,231.21l.76.17c-.28,3.68-.54,7.36-.81,11-2.23.27-3.1-.67-2.95-2.93s0-4.41,0-6.61l.65-1.52.07-.06Z"/><path class="cls-26" d="M147.28,242.42c.27-3.68.53-7.36.81-11,.46.61,1.28,1.19,1.32,1.82.15,2.69.11,5.38.05,8.08C149.43,242.84,148.91,243.77,147.28,242.42Z"/><path class="cls-26" d="M151.59,231.37c-.22,1.73-.45,3.46-.67,5.18C150,234.68,149.3,232.83,151.59,231.37Z"/><path class="cls-26" d="M155.3,237.31c-.13-1-.26-2-.38-3C155.05,235.3,155.17,236.31,155.3,237.31Z"/><path class="cls-26" d="M154.67,231.31h-3C152.66,229.35,153.67,229.35,154.67,231.31Z"/><path class="cls-26" d="M147.33,231.21l-2.3.09,1.28-1.25Z"/><path class="cls-26" d="M145,231.36l-.65,1.52Z"/><path class="cls-20" d="M186.26,262.3V246.89c3.88,0,8.1-.1,12.29.12.61,0,1.57,1.64,1.6,2.54.17,4.25.06,8.52,0,12.78Z"/><path class="cls-20" d="M140.68,262.31c0-4.25.09-8.51-.06-12.76-.08-2.47,1.19-2.72,3.16-2.74s2.85.64,2.79,2.73c-.11,4.26,0,8.51,0,12.77Z"/><path class="cls-7" d="M210.55,263l.93.07-.92.76C210.55,263.57,210.55,263.29,210.55,263Z"/><path class="cls-3" d="M176.37,292.45c3.18-.38,6.34.26,8.57,3.84,2.36,3.77.51,9.8-4,10.67-3.58.69-7.16,2.22-11.1-.1-3.55-2.08-6.11-4.67-5.62-8s4.07-6.13,7.93-6.4C173.37,292.38,174.59,292.45,176.37,292.45Z"/><path class="cls-28" d="M473.18,129.59l.6,1.83c-.71.91-2.12,1.94-2,2.73a58.12,58.12,0,0,0,2,7.55v0l1.48,2.9c0,.55-.09,1.11-.13,1.66-4-2.37-6.84-11.42-4.63-15.31.48-.83,1.69-1.24,2.56-1.85C473.11,129.25,473.15,129.42,473.18,129.59Z"/><path class="cls-11" d="M473.92,132q1.43,5.19,2.87,10.38l-3-.73v0C473.85,138.48,473.88,135.25,473.92,132Z"/><path class="cls-25" d="M473.92,132c0,3.22-.07,6.45-.11,9.67a58.12,58.12,0,0,1-2-7.55c-.12-.79,1.29-1.82,2-2.73C473.83,131.62,473.87,131.83,473.92,132Z"/><path class="cls-25" d="M473.8,141.68l3,.73c-.5.73-1,1.45-1.51,2.17Z"/></g></g></g></svg>